<svg xmlns="http://www.w3.org/2000/svg" xmlns:xlink="http://www.w3.org/1999/xlink" xmlns:inkscape="http://www.inkscape.org/namespaces/inkscape" version="1.1" width="918.425" height="1380.47" viewBox="0 0 918.425 1380.47">
<g inkscape:groupmode="layer" inkscape:label="Layer 1">
<path transform="matrix(1,0,0,-1,0,1380.47)" d="M441.9632 1144.5049C445.2707 1143.5999 449.6219 1143.5302 456.5843 1143.408 463.5465 1143.286 473.1194 1143.112 479.4551 1143.9125 485.7908 1144.7133 488.8894 1146.4887 490.6301 1148.7515 492.3706 1151.0144 492.7533 1153.764 490.699 1157.3495 488.6453 1160.935 484.1549 1165.356 479.577 1168.5064 474.9996 1171.6571 470.3349 1173.5376 466.2618 1174.1814 462.1887 1174.8255 458.7077 1174.2333 454.913 1172.7536 451.1186 1171.2742 447.0109 1168.9067 443.3905 1165.826 439.7703 1162.7456 436.6375 1158.9514 435.1754 1156.0099 433.7135 1153.0687 433.9222 1150.9801 435.1578 1149.0653 436.3934 1147.1508 438.6563 1145.41 441.9632 1144.5049" fill-rule="evenodd"/>
<path transform="matrix(1,0,0,-1,0,1380.47)" d="M375.3326 1050.408C379.1619 1052.1139 383.618 1053.5064 389.5705 1054.62 395.5235 1055.7343 402.9729 1056.5697 408.8214 1056.9523 414.6698 1057.3356 418.9164 1057.2659 421.1096 1057.788 423.303 1058.31 423.4419 1059.4244 428.4198 1065.2031 433.398 1070.9816 443.215 1081.4253 450.2815 1087.482 457.3483 1093.5394 461.6649 1095.2107 464.5196 1095.9415 467.3741 1096.6725 468.7665 1096.4639 470.124 1095.9415 471.4818 1095.4193 472.805 1094.5844 477.4697 1090.9636 482.1344 1087.3432 490.1406 1080.9378 496.8941 1074.4625 503.6477 1067.9876 509.1474 1061.4436 512.1414 1057.8577 515.1353 1054.2722 515.6229 1053.6454 516.5277 1053.4368 517.4328 1053.2279 518.756 1053.4368 526.2752 1053.5064 533.7944 1053.576 547.5098 1053.5064 555.1685 1053.3668 562.8271 1053.2279 564.4284 1053.019 564.8114 1053.75 565.194 1054.4811 564.359 1056.1524 560.5642 1060.9212 556.7698 1065.6904 550.0168 1073.558 545.1775 1078.2921 540.3387 1083.0266 537.4148 1084.6278 535.9524 1084.9063 534.4903 1085.1849 534.4903 1084.1406 534.4206 1081.9124 534.3511 1079.6845 534.2122 1076.273 533.3766 1074.045 532.5409 1071.8173 531.0094 1070.773 529.0251 1070.0067 527.0409 1069.2409 524.6039 1068.7538 522.167 1068.8582 519.7306 1068.9627 517.2939 1069.6589 515.6575 1070.773 514.0213 1071.887 513.1862 1073.4185 512.5941 1075.0894 512.0025 1076.7606 511.6544 1078.5708 511.6544 1080.1369 511.6544 1081.7036 512.0025 1083.0266 512.6987 1084.3146 513.3951 1085.6024 514.4391 1086.856 515.8315 1087.6215 517.2242 1088.3877 518.9644 1088.6658 521.2621 1088.7704 523.5596 1088.875 526.4141 1088.8053 527.5976 1089.1535 528.7813 1089.5014 528.294 1090.2671 525.8225 1091.5206 523.3507 1092.7738 518.8949 1094.5142 512.5589 1095.5934 506.2235 1096.6725 498.0078 1097.0906 492.3683 1098.0303 486.7291 1098.9703 483.6657 1100.4321 481.8555 1101.9291 480.0455 1103.4262 479.4885 1104.9577 479.4537 1106.2454 479.4191 1107.5338 479.9061 1108.5778 481.9598 1109.1002 484.0138 1109.6223 487.6345 1109.6223 490.8368 1109.831 494.0396 1110.0399 496.8247 1110.458 499.087 1111.7459 501.3499 1113.0338 503.0906 1115.1924 503.9609 1117.2461 504.8314 1119.3 504.8314 1121.2492 504.1698 1123.1989 503.5082 1125.1483 502.1855 1127.0977 500.201 1128.4551 498.2168 1129.8129 495.5715 1130.5791 492.717 1131.066 489.8622 1131.5537 486.7991 1131.7623 477.6437 1131.9364 468.4884 1132.1107 453.2406 1132.2499 444.1201 1131.867 434.9993 1131.4843 432.006 1130.5791 429.4295 1129.2559 426.8537 1127.9334 424.6951 1126.1925 423.6854 1123.9299 422.676 1121.6674 422.8155 1118.8823 423.5465 1116.7935 424.2776 1114.705 425.6005 1113.3125 427.7937 1112.1983 429.9866 1111.0844 433.05 1110.2492 436.1134 1109.7615 439.1768 1109.2742 442.2404 1109.1353 444.2593 1108.9959 446.2784 1108.8565 447.2532 1108.7175 447.8797 1107.9862 448.5064 1107.2551 448.7848 1105.9325 448.2626 1103.635 447.7402 1101.3372 446.4176 1098.0646 444.8857 1095.9412 443.3539 1093.818 441.6137 1092.8432 436.322 1092.2863 431.0311 1091.7293 422.1887 1091.5903 413.3815 1089.5014 404.5742 1087.4126 395.8019 1083.3746 389.1178 1078.3619 382.4342 1073.3491 377.8393 1067.3615 374.184 1062.0352 370.5287 1056.7091 367.8131 1052.0442 366.4553 1049.2592 365.0981 1046.4744 365.0981 1045.5693 366.6994 1046.1264 368.3007 1046.6834 371.5033 1048.7028 375.3326 1050.408" fill-rule="evenodd"/>
<path transform="matrix(1,0,0,-1,0,1380.47)" d="M365.3736 997.7882C368.8549 996.5177 372.8228 996.622 376.1991 997.5447 379.5761 998.4671 382.3611 1000.2078 385.9115 1001.5832 389.4625 1002.9577 393.7793 1003.9674 399.4883 1004.5417 405.1976 1005.116 412.2992 1005.2552 419.8533 1004.942 427.4076 1004.6288 435.4143 1003.8626 443.6294 1002.6272 451.8448 1001.3913 460.2688 999.686 469.9811 999.7906 479.6938 999.8949 490.6945 1001.8089 498.9098 1003.1142 507.1258 1004.4196 512.5567 1005.1157 521.3639 1005.3944 530.1711 1005.6728 542.355 1005.5339 550.4658 1005.116 558.5771 1004.6982 562.6151 1004.0017 565.5044 1003.0275 568.3941 1002.0523 570.1343 1000.7991 571.4921 1000.103 572.8499 999.4068 573.8244 999.2676 575.5652 1000.5902 577.3059 1001.9132 579.8123 1004.6982 580.926 1009.0845 582.0401 1013.4706 581.7617 1019.4579 579.9864 1025.1672 578.211 1030.8762 574.9384 1036.3071 568.8116 1039.3004 562.6851 1042.2944 553.7032 1042.8515 545.279 1043.0949 536.8547 1043.3388 528.9874 1043.2689 523.9046 1043.1295 518.8224 1042.9906 516.5252 1042.782 515.55 1041.8068 514.5755 1040.8323 514.9239 1039.092 514.9585 1035.8546 514.9933 1032.617 514.715 1027.8828 512.8696 1023.6702 511.0248 1019.4579 507.6133 1015.7683 504.0624 1012.9836 500.5117 1010.1986 496.8218 1008.3183 491.809 1006.8911 486.7963 1005.4638 480.4603 1004.4893 474.6118 1004.1063 468.7639 1003.7231 463.4028 1003.9323 457.9373 1004.6288 452.4721 1005.3249 446.902 1006.5084 442.1673 1008.2837 437.4332 1010.0591 433.5347 1012.4263 430.471 1015.977 427.4076 1019.5279 425.1798 1024.2621 423.9612 1029.24 422.7429 1034.2182 422.534 1039.44 422.2208 1042.3294 421.9075 1045.2183 421.4897 1045.7756 414.8751 1045.7583 408.261 1045.7413 395.4498 1045.1506 385.6677 1043.2359 375.8859 1041.321 369.1327 1038.0833 364.2939 1033.9577 359.4555 1029.8322 356.5315 1024.8191 355.4521 1019.7366 354.3729 1014.654 355.1391 1009.5021 357.0185 1005.6033 358.8987 1001.7043 361.8927 999.059 365.3736 997.7882ZM374.1432 1018.5919C374.8745 1015.9807 376.041 1013.5089 377.6856 1011.7508 379.3309 1009.9928 381.454 1008.9488 383.8037 1008.2353 386.1539 1007.5215 388.7297 1007.1383 392.2631 1007.4169 395.7968 1007.6953 400.2874 1008.6352 403.1765 1009.7493 406.0658 1010.8633 407.3542 1012.1513 408.4591 1015.276 409.5643 1018.4 410.4862 1023.3612 409.7982 1027.8609 409.1108 1032.3607 406.813 1036.3989 403.132 1038.566 399.4509 1040.7328 394.386 1041.0282 389.7652 1040.0615 385.1442 1039.0952 380.9665 1036.8676 378.2163 1034.4314 375.4658 1031.9948 374.1423 1029.3506 373.629 1026.6528 373.1153 1023.9548 373.4118 1021.2035 374.1432 1018.5919ZM524.4403 1029.0206C523.6571 1025.9419 523.8312 1022.2866 524.8755 1019.2405 525.92 1016.1944 527.8343 1013.758 530.663 1011.9954 533.4914 1010.2331 537.2337 1009.1455 541.1716 1008.993 545.1097 1008.8408 549.2435 1009.6243 551.9412 1011.4081 554.6392 1013.1922 555.9015 1015.977 556.2496 1019.2192 556.5977 1022.4609 556.0316 1026.1593 554.6392 1029.336 553.2471 1032.5126 551.0276 1035.167 547.9381 1036.7555 544.8487 1038.3438 540.8887 1038.8659 537.5378 1038.746 534.1876 1038.6264 531.4459 1037.865 529.2048 1036.2328 526.964 1034.6012 525.2238 1032.099 524.4403 1029.0206" fill-rule="evenodd"/>
<path transform="matrix(1,0,0,-1,0,1380.47)" d="M383.7481 1025.4008C383.7654 1024.1821 383.8005 1022.0236 384.6359 1020.4747 385.4716 1018.9256 387.1074 1017.9856 389.0395 1017.6548 390.9716 1017.3243 393.1994 1017.6029 394.6093 1018.4905 396.0193 1019.3783 396.6114 1020.875 396.7503 1022.8419 396.8895 1024.8086 396.5763 1027.2455 395.0096 1028.5858 393.4431 1029.9257 390.6235 1030.1698 388.5347 1029.752 386.4458 1029.3341 385.0886 1028.255 384.4097 1027.5763 383.7308 1026.8975 383.7308 1026.6188 383.7481 1025.4008" fill-rule="evenodd"/>
<path transform="matrix(1,0,0,-1,0,1380.47)" d="M533.6606 1026.8394C533.0078 1025.0989 532.921 1023.6189 533.6606 1022.2702 534.4004 1020.9212 535.9666 1019.7031 538.3596 1019.4857 540.7532 1019.2677 543.9733 1020.0512 545.8008 1021.3132 547.6286 1022.5749 548.0637 1024.3154 547.6723 1026.2302 547.2805 1028.1447 546.0622 1030.2333 544.104 1031.3215 542.1458 1032.409 539.4478 1032.4962 537.4896 1031.539 535.5317 1030.5816 534.3134 1028.5798 533.6606 1026.8394" fill-rule="evenodd"/>
<path transform="matrix(1,0,0,-1,0,1380.47)" d="M454.1734 1037.1047C453.8951 1035.6426 454.1734 1033.3455 454.7996 1031.9882 455.4266 1030.6304 456.4015 1030.2123 457.0625 1030.4909 457.7241 1030.7693 458.0722 1031.7442 458.1417 1032.6492 458.2117 1033.5543 458.0028 1034.3894 457.9682 1035.434 457.9333 1036.4783 458.0722 1037.7315 458.6638 1038.2885 459.256 1038.8455 460.3 1038.7066 460.8221 1037.4182 461.3445 1036.1303 461.3445 1033.6935 461.7967 1032.0576 462.2496 1030.4212 463.155 1029.5858 464.0947 1029.7947 465.0347 1030.0034 466.0095 1031.2566 466.3225 1032.4403 466.636 1033.6238 466.2879 1034.7376 466.2179 1035.6775 466.1484 1036.6172 466.3576 1037.3834 466.9146 1036.8958 467.4716 1036.4085 468.3767 1034.6681 469.5253 1033.2409 470.6742 1031.8136 472.0663 1030.6994 473.1109 1030.1077 474.1551 1029.5161 474.8513 1029.446 475.5824 1029.5161 476.3134 1029.5855 477.0797 1029.7947 477.5666 1030.6304 478.0542 1031.4655 478.2628 1032.9276 478.7853 1033.4497 479.3074 1033.9719 480.1425 1033.554 480.9084 1033.2758 481.6743 1032.997 482.3708 1032.8582 482.9275 1033.2409 483.4845 1033.6238 483.9026 1034.5289 484.2156 1037.0004 484.5291 1039.4722 484.7377 1043.5103 484.285 1046.5042 483.8326 1049.4978 482.7189 1051.4469 481.1871 1052.526 479.6555 1053.6052 477.7061 1053.8145 476.5224 1054.1273 475.3389 1054.4409 474.9208 1054.859 474.3292 1055.033 473.7376 1055.2072 472.9714 1055.137 472.1012 1054.3363 471.2312 1053.5357 470.2561 1052.0042 469.5715 1050.7847 468.887 1049.565 468.4924 1048.658 467.6567 1048.6928 466.8214 1048.7273 465.5449 1049.7044 464.9414 1050.5755 464.3382 1051.4469 464.4082 1052.2131 464.4428 1053.0136 464.4777 1053.8145 464.4777 1054.6498 463.1545 1054.8239 461.8318 1054.9979 459.1865 1054.5106 457.1325 1053.7448 455.0788 1052.9788 453.6164 1051.9345 453.4075 1051.0294 453.1989 1050.1243 454.2432 1049.3587 454.4521 1048.4882 454.6607 1047.6179 454.0343 1046.6433 453.3729 1046.086 452.7113 1045.529 452.0151 1045.3901 451.6668 1044.8331 451.3187 1044.2764 451.3187 1043.3013 451.9106 1042.8137 452.5024 1042.3267 453.6859 1042.3267 454.4864 1041.9089 455.2872 1041.4911 455.7053 1040.656 455.4961 1039.9246 455.2872 1039.1936 454.4521 1038.5671 454.1734 1037.1047" fill-rule="evenodd"/>
<path transform="matrix(1,0,0,-1,0,1380.47)" d="M455.6832 1069.484C451.3751 1065.3069 445.631 1059.389 441.8887 1054.7328 438.1464 1050.0769 436.4062 1046.6828 435.71 1043.1148 435.0135 1039.5465 435.3619 1035.8042 436.4495 1032.584 437.5375 1029.3643 439.3653 1026.6661 442.9769 1023.925 446.5885 1021.1834 451.9843 1018.3986 459.2509 1017.4414 466.518 1016.4838 475.6558 1017.354 481.5737 1018.66 487.4916 1019.965 490.1899 1021.7055 493.018 1024.708 495.8464 1027.7107 498.8058 1031.9751 500.1109 1035.4998 501.4162 1039.0247 501.0681 1041.8095 498.3704 1046.4653 495.6724 1051.1212 490.625 1057.6486 485.2726 1063.436 479.9203 1069.2232 474.2637 1074.2713 470.9565 1076.6642 467.6496 1079.0575 466.6921 1078.7964 464.7773 1077.4474 462.8628 1076.0984 459.991 1073.6618 455.6832 1069.484" fill-rule="evenodd"/>
<path transform="matrix(1,0,0,-1,0,1380.47)" d="M322.8259 859.3183C318.4747 863.2346 313.253 868.805 309.2496 877.5947 305.2463 886.3846 302.4615 898.3945 301.9394 907.8806 301.4172 917.3667 303.1574 924.3289 307.0738 930.2468 310.9901 936.1647 317.0826 941.0386 324.1318 945.303 331.1813 949.5672 339.1875 953.2227 343.6262 956.0078 348.0647 958.7925 348.9347 960.7068 348.0642 962.7956 347.1942 964.8845 344.5832 967.1468 340.232 967.9303 335.8806 968.7135 329.7883 968.0173 321.8689 965.0585 313.9492 962.0994 304.202 956.8777 297.1528 952.9614 290.1036 949.045 285.7518 946.4343 282.532 945.216 279.3118 943.9974 277.2235 944.1714 275.5695 945.042 273.9161 945.9122 272.698 947.4783 273.4812 950.4374 274.2642 953.3962 277.0495 957.748 285.2297 963.3178 293.4105 968.8876 306.987 975.6757 318.7355 979.592 330.4845 983.5084 340.4061 984.5524 347.8034 983.7694 355.2007 982.9862 360.0746 980.3752 363.4688 977.0683 366.8627 973.7612 368.7772 969.7578 368.7772 964.188 368.7772 958.6179 366.8627 951.482 363.0334 943.3885 359.204 935.2945 353.4605 926.2437 350.5011 919.1072 347.5423 911.971 347.3683 906.749 348.0647 902.6589 348.7609 898.5685 350.3271 895.6094 352.1546 893.956 353.9826 892.3025 356.0709 891.9544 357.5503 894.7395 359.03 897.5242 359.9005 903.4421 361.2059 908.6638 362.5115 913.8852 364.2517 918.411 366.0792 919.9777 367.9072 921.5439 369.8215 920.1518 370.6047 917.4538 371.3882 914.756 371.0401 910.7524 372.3452 903.0943 373.6511 895.4357 376.6099 884.1217 381.3092 873.7654 386.009 863.4087 392.449 854.0099 396.4524 848.6144 400.4558 843.2181 402.0222 841.826 401.3257 839.0412 400.6295 836.2562 397.6707 832.0785 394.4506 829.9902 391.2307 827.9014 387.7492 827.9014 384.9642 828.2494 382.1794 828.5975 380.0911 829.294 378.6985 831.2956 377.3061 833.2971 376.6099 836.6043 376.7839 840.0852 376.958 843.5662 378.0023 847.2217 376.8707 849.2233 375.7394 851.2248 372.4325 851.5729 364.9479 851.5729 357.4636 851.5729 345.8018 851.2248 338.2299 852.1824 330.6586 853.1396 327.1776 855.4022 322.8259 859.3183" fill-rule="evenodd"/>
<path transform="matrix(1,0,0,-1,0,1380.47)" d="M503.6031 850.4022C502.9722 849.3146 502.494 847.8782 502.7547 846.5944 503.0161 845.3109 504.0167 844.1793 505.4091 843.7226 506.8018 843.2654 508.5859 843.4834 510.196 844.2448 511.806 845.0062 513.2418 846.3118 513.5683 848.0307 513.8946 849.7494 513.1111 851.8816 511.6317 852.7737 510.1526 853.6657 507.9764 853.3176 506.497 852.7737 505.0176 852.2297 504.2341 851.4901 503.6031 850.4022" fill-rule="evenodd"/>
<path transform="matrix(1,0,0,-1,0,1380.47)" d="M405.0405 808.4761C409.4572 804.1462 417.1598 796.8356 421.0758 793.5069 424.9922 790.1779 425.1226 790.8304 423.8391 795.1822 422.5552 799.5334 419.8575 807.584 418.4867 811.6092 417.1161 815.6341 417.0725 815.6341 413.9391 815.6123 410.8065 815.5908 404.5839 815.5468 402.0378 814.8506 399.4923 814.1545 400.6239 812.8057 405.0405 808.4761" fill-rule="evenodd"/>
<path transform="matrix(1,0,0,-1,0,1380.47)" d="M394.1836 791.3957C393.9877 789.8941 394.0532 787.6534 394.9886 786.0651 395.924 784.4769 397.7303 783.5414 399.7647 783.4 401.7991 783.2588 404.0614 783.9111 405.3779 785.38 406.6943 786.8486 407.0642 789.1328 406.8791 791.0042 406.6943 792.8751 405.9547 794.3332 404.5292 795.2034 403.1045 796.074 400.9938 796.3566 399.3401 796.1284 397.6866 795.8996 396.4901 795.1598 395.6632 794.4094 394.8364 793.6586 394.3797 792.8969 394.1836 791.3957" fill-rule="evenodd"/>
<path transform="matrix(1,0,0,-1,0,1380.47)" d="M377.9093 809.4107C378.5403 807.6266 380.194 805.7554 382.4785 805.1462 384.7629 804.5374 387.6786 805.1896 389.2448 806.6696 390.8115 808.149 391.0294 810.4547 390.42 812.3261 389.8108 814.197 388.3748 815.633 386.7866 816.2858 385.1983 816.9384 383.4575 816.808 381.9779 816.3947 380.4985 815.9811 379.2804 815.2849 378.4751 814.0884 377.6703 812.8916 377.2783 811.1945 377.9093 809.4107" fill-rule="evenodd"/>
<path transform="matrix(1,0,0,-1,0,1380.47)" d="M342.9014 824.1185C346.2956 816.1118 352.6489 803.4052 360.481 792.6571 368.3137 781.9092 377.6261 773.1193 386.9816 766.0267 396.337 758.9339 405.7364 753.5378 413.0464 749.8828 420.3567 746.2273 425.579 744.313 429.0599 743.6605 432.5411 743.0077 434.2813 743.6166 435.0212 746.1842 435.7613 748.7515 435.4999 753.2768 434.1073 755.1043 432.7152 756.9317 430.1909 756.0621 427.5366 756.0184 424.8825 755.9748 422.0974 756.7583 419.4431 758.0636 416.789 759.3687 414.2648 761.1968 412.6113 763.5898 410.9579 765.9831 410.1744 768.9421 409.1734 770.4655 408.1728 771.9883 406.9548 772.075 405.6491 772.075 404.3438 772.075 402.9511 771.9883 402.3856 770.7696 401.8201 769.5513 402.0809 767.2014 401.7328 765.9831 401.385 764.7644 400.4274 764.6777 397.599 766.2444 394.7709 767.8106 390.0711 771.0307 386.7636 773.337 383.4567 775.6432 381.5425 777.0356 380.759 779.5596 379.9757 782.0833 380.3241 785.7388 380.3675 787.5663 380.4109 789.3938 380.1498 789.3938 378.0176 789.3505 375.8854 789.3068 371.882 789.2198 368.7052 791.0036 365.529 792.7877 363.1793 796.4433 362.3525 798.9236 361.5259 801.4037 362.2218 802.7093 363.3531 805.0156 364.4847 807.3215 366.0511 810.6287 365.703 812.848 365.3549 815.0669 363.0926 816.1985 360.3509 817.3738 357.6095 818.5484 354.3894 819.7668 353.3017 821.899 352.2138 824.0312 353.2578 827.0773 355.1287 829.9491 357.0001 832.8212 359.6978 835.5189 361.0466 837.2597 362.3958 838.9998 362.3958 839.7833 358.4361 839.8706 354.4764 839.9574 346.5567 839.3479 342.8147 837.3903 339.0724 835.4322 339.5078 832.1247 342.9014 824.1185" fill-rule="evenodd"/>
<path transform="matrix(1,0,0,-1,0,1380.47)" d="M203.4561 829.4774C208.5474 828.6945 218.9911 828.9553 224.735 829.3907 230.4788 829.8255 231.5234 830.435 237.746 835.7 243.9686 840.9651 255.369 850.8866 261.2869 857.414 267.2048 863.941 267.6402 867.0736 267.0307 871.6864 266.4218 876.299 264.7678 882.3909 262.5922 886.0025 260.4166 889.6141 257.7186 890.7457 255.8041 891.3112 253.8896 891.877 252.758 891.877 252.6707 892.7039 252.5839 893.5305 253.5415 895.1842 253.5415 897.099 253.5415 899.0133 252.5839 901.1891 250.147 902.9733 247.7103 904.7571 243.794 906.1498 239.0074 906.1064 234.2211 906.063 228.5643 904.5831 224.2998 902.3641 220.0357 900.1446 217.1633 897.1858 213.5951 889.005 210.0268 880.8242 205.763 867.422 203.152 858.1972 200.5413 848.9718 199.5837 843.9242 199.1483 840.5739 198.7135 837.2234 198.8005 835.5694 198.7135 833.8292 198.6265 832.0884 198.3651 830.2606 203.4561 829.4774" fill-rule="evenodd"/>
<path transform="matrix(1,0,0,-1,0,1380.47)" d="M158.2002 984.3883C156.3293 978.5571 155.0237 972.0303 155.1977 964.3717 155.3717 956.713 157.0255 947.9234 159.8536 940.9175 162.682 933.9117 166.6857 928.6897 171.7333 925.1215 176.7807 921.5532 182.8729 919.639 187.1807 918.7036 191.4885 917.7681 194.0122 917.8118 194.1647 918.9652 194.3169 920.1186 192.0977 922.3809 190.8791 925.9277 189.661 929.4735 189.4436 934.3037 189.6392 938.6334 189.8351 942.9625 190.4445 946.7921 192.3154 949.8815 194.1863 952.9707 197.3197 955.3207 199.4136 957.2318 201.5076 959.1426 202.5629 960.6152 202.5952 962.4214 202.6281 964.2271 201.6377 966.367 198.5428 967.589 195.448 968.811 190.2484 969.1149 185.3422 971.3557 180.436 973.5965 175.8237 977.7742 172.7776 982.8655 169.7318 987.9565 168.2518 993.9611 167.2075 997.0509 166.1635 1000.1404 165.5541 1000.3144 164.0307 997.8341 162.508 995.3538 160.0716 990.2194 158.2002 984.3883" fill-rule="evenodd"/>
<path transform="matrix(1,0,0,-1,0,1380.47)" d="M211.8078 975.2295C215.3764 975.2295 218.2697 972.2778 218.2697 968.637 218.2697 964.9962 215.3764 962.0444 211.8078 962.0444 208.2393 962.0444 205.346 964.9962 205.346 968.637 205.346 972.2778 208.2393 975.2295 211.8078 975.2295" fill-rule="evenodd"/>
<path transform="matrix(1,0,0,-1,0,1380.47)" d="M197.1224 991.1991C198.5581 987.8916 200.6467 983.4531 202.3435 980.9728 204.0406 978.4925 205.3466 977.9703 206.3906 978.014 207.4348 978.0574 208.2183 978.6665 208.4794 980.2548 208.7405 981.843 208.4794 984.4106 207.3042 987.5874 206.1295 990.7637 204.0412 994.5493 202.3438 996.7689 200.647 998.9878 199.3414 999.6403 198.036 999.7277 196.7306 999.8144 195.425 999.3359 195.1637 998.009 194.9029 996.6815 195.6864 994.506 197.1224 991.1991" fill-rule="evenodd"/>
<path transform="matrix(1,0,0,-1,0,1380.47)" d="M212.9159 956.194C212.87 954.9561 213.4749 953.6119 216.8181 946.6792 220.1613 939.746 226.2424 927.2251 229.5079 920.3148 232.7737 913.4045 233.2239 912.1059 234.9281 911.6413 236.6325 911.1767 239.5919 911.5464 241.0713 911.7315 242.5513 911.916 242.5513 911.916 239.3308 918.7155 236.1107 925.5146 229.6701 939.113 225.6667 947.2501 221.6633 955.3873 220.0975 958.0635 218.6184 959.2274 217.139 960.391 215.7466 960.0429 214.7023 959.3031 213.658 958.5635 212.9615 957.4319 212.9159 956.194" fill-rule="evenodd"/>
<path transform="matrix(1,0,0,-1,0,1380.47)" d="M225.2075 980.0617C226.535 979.0393 228.145 977.69 229.8419 975.4492 231.5392 973.2081 233.3231 970.0753 234.8461 966.3111 236.3692 962.547 237.6315 958.1522 238.3929 954.2358 239.1542 950.3195 239.4156 946.8819 239.8723 945.2718 240.3295 943.662 240.9817 943.8795 241.7865 947.4693 242.5918 951.0593 243.5494 958.0215 242.9833 964.5707 242.4178 971.1193 240.3295 977.2551 238.1754 981.3671 236.0214 985.4793 233.8019 987.5676 231.2782 987.7416 228.7545 987.9157 225.9258 986.1755 224.2942 984.9787 222.6626 983.7819 222.2271 983.1297 222.5319 982.455 222.8366 981.7804 223.8806 981.0842 225.2075 980.0617" fill-rule="evenodd"/>
<path transform="matrix(1,0,0,-1,0,1380.47)" d="M259.431 837.3572C260.9977 834.6158 262.9993 831.0039 265.1315 824.7161 267.2637 818.4283 269.526 809.4645 271.0709 804.8738 272.6158 800.2831 273.4424 800.0651 274.0952 803.2201 274.748 806.3751 275.2265 812.9018 274.1822 820.3212 273.1382 827.7403 270.5706 836.0518 268.5906 841.121 266.6109 846.1902 265.2185 848.0183 263.1515 847.9315 261.0848 847.8442 258.3431 845.8421 257.538 843.906 256.7333 841.9697 257.8649 840.0983 259.431 837.3572" fill-rule="evenodd"/>
<path transform="matrix(1,0,0,-1,0,1380.47)" d="M296.5482 735.9693C295.7213 725.7433 294.3289 709.2077 294.2419 696.8934 294.1549 684.5788 295.3729 676.4851 297.4618 671.1327 299.5506 665.7803 302.5094 663.1699 304.2502 662.1687 305.9906 661.1678 306.5131 661.7772 307.3394 664.0401 308.1665 666.3025 309.2981 670.2188 311.6477 674.0484 313.9974 677.8774 317.5654 681.6197 322.308 685.4494 327.0515 689.2784 332.9697 693.1942 339.0616 697.981 345.1535 702.7676 351.4198 708.4242 355.5969 713.3414 359.7746 718.2584 361.8629 722.4361 363.6904 728.8761 365.5185 735.3164 367.0846 744.0188 367.5634 748.762 368.0422 753.5049 367.4327 754.2884 365.866 754.071 364.2999 753.853 361.7762 752.635 358.2513 746.5431 354.727 740.4511 350.2012 729.4853 346.7636 722.6969 343.326 715.9088 340.9761 713.298 339.7575 713.2547 338.5395 713.211 338.4522 715.735 338.7132 718.7811 338.9743 721.8269 339.5837 725.3949 341.9337 731.7048 344.2833 738.0142 348.3737 747.0649 350.1139 753.2008 351.8546 759.3361 351.2455 762.5563 350.1139 764.21 348.9829 765.8634 347.3294 765.9502 346.1108 764.9932 344.8928 764.0359 344.1093 762.0338 341.3242 755.4197 338.5395 748.8057 333.7529 737.5791 330.8372 731.9659 327.9217 726.3524 326.8777 726.3524 326.4857 729.2242 326.0942 732.0963 326.3556 737.8401 327.4432 744.7156 328.5312 751.5907 330.4454 759.5974 330.8805 763.5572 331.3159 767.5169 330.2719 767.4301 327.5739 764.7755 324.8762 762.1211 320.5244 756.8991 318.0441 752.722 315.5638 748.5446 314.9546 745.4115 314.3886 742.3654 313.8231 739.3195 313.3012 736.3607 312.6917 735.2728 312.0829 734.1846 311.3864 734.9681 310.5162 737.318 309.6459 739.6676 308.6016 743.584 308.0795 747.4569 307.5574 751.3294 307.5574 755.159 306.7305 756.8561 305.9039 758.5529 304.2502 758.1175 302.6401 757.2912 301.03 756.464 299.4639 755.246 298.5497 752.6789 297.6358 750.1113 297.375 746.195 296.5482 735.9693" fill-rule="evenodd"/>
<path transform="matrix(1,0,0,-1,0,1380.47)" d="M320.089 668.914C324.4402 673.4392 331.664 679.5315 338.1041 684.6228 344.5441 689.7138 350.2009 693.8036 354.9002 698.8516 359.6 703.8992 363.342 709.9041 364.9955 714.3863 366.6492 718.8684 366.2138 721.8269 366.91 722.0449 367.6065 722.2623 369.4343 719.7384 369.6083 711.3399 369.7824 702.9417 368.3027 688.6692 365.9091 679.6185 363.5161 670.5675 360.2092 666.7379 356.5536 663.8661 352.8986 660.994 348.895 659.0798 341.8021 658.2095 334.7096 657.339 324.5275 657.5131 319.1754 657.7308 313.8231 657.9482 313.3009 658.2095 313.7791 659.8193 314.2579 661.4294 315.7379 664.3882 320.089 668.914" fill-rule="evenodd"/>
<path transform="matrix(1,0,0,-1,0,1380.47)" d="M245.5469 654.728C239.6724 647.9399 233.6678 638.7151 230.4476 630.1426 227.2277 621.5703 226.7923 613.6503 228.1414 607.515 229.4906 601.3797 232.6235 597.028 236.1915 594.4173 239.7597 591.8063 243.7634 590.9363 248.7671 590.5882 253.7714 590.2401 259.7763 590.4142 269.3494 593.1122 278.9226 595.8099 292.0637 601.0316 300.462 605.2961 308.8604 609.5605 312.5157 612.8674 313.3423 614.5211 314.1692 616.1746 312.1676 616.1746 307.5117 617.0451 302.8555 617.9153 295.5453 619.6555 288.7132 624.6164 281.8814 629.5771 275.5284 637.7576 271.3944 643.8061 267.2606 649.8547 265.3461 653.7708 264.3885 657.7744 263.4313 661.7775 263.4313 665.8676 263.3443 667.9565 263.2572 670.0453 263.0832 670.1321 260.1241 668.0001 257.1653 665.8679 251.4214 661.5164 245.5469 654.728" fill-rule="evenodd"/>
<path transform="matrix(1,0,0,-1,0,1380.47)" d="M216.61 667.2166C215.566 664.5623 213.3899 659.95 212.3022 652.9008 211.2143 645.8513 211.2143 636.3652 211.2576 631.6226 211.3016 626.8793 211.3883 626.8793 213.3031 631.1438 215.2179 635.4082 218.9599 643.9365 225.0085 652.6397 231.0571 661.3427 239.4116 670.2194 244.4593 675.354 249.5072 680.489 251.2474 681.8811 250.5946 682.7513 249.942 683.6219 246.8962 683.97 243.1106 683.8829 239.3249 683.7959 234.7991 683.2735 231.4916 682.0551 228.1847 680.8365 226.0964 678.9223 223.7029 677.965 221.3099 677.0075 218.6118 677.0075 215.0002 678.2261 211.3886 679.4444 206.8631 681.8811 204.1651 683.4478 201.4673 685.0142 200.5968 685.7101 201.5974 683.8393 202.5984 681.9678 205.4704 677.5296 208.4292 675.006 211.3883 672.4823 214.4344 671.8728 216.0009 671.2203 217.5676 670.5675 217.6543 669.8713 216.61 667.2166" fill-rule="evenodd"/>
<path transform="matrix(1,0,0,-1,0,1380.47)" d="M216.9578 463.4391C221.3093 456.0418 228.7936 444.7278 237.9314 436.4603 247.0694 428.1925 257.8612 422.9705 269.3489 419.3155 280.8366 415.66 293.021 413.5717 311.3838 412.9625 329.747 412.3531 354.2888 413.2236 366.5597 413.659 378.8308 414.0938 378.8308 414.0938 380.8324 423.6673 382.8339 433.2402 386.8376 452.3865 388.8391 461.9597 390.8407 471.5325 390.8407 471.5325 379.614 477.8858 368.3874 484.2388 345.9339 496.9449 329.6597 505.1256 313.3854 513.3061 303.2901 516.9617 294.4998 519.1373 285.7102 521.3129 278.2259 522.0091 270.6542 520.5297 263.0829 519.0503 255.4248 515.395 250.0285 510.6087 244.6328 505.8221 241.5002 499.9042 238.8889 496.6841 236.2779 493.4639 234.1896 492.9418 231.8394 493.2899 229.4898 493.638 226.8791 494.8563 225.7475 497.4673 224.6162 500.0777 224.9643 504.0814 227.2269 509.042 229.4898 514.0023 233.6675 519.9208 241.8477 524.8814 250.0285 529.8418 262.2127 533.8454 275.0054 535.3248 287.799 536.8042 301.2012 535.7597 308.9469 534.4543 316.6926 533.1487 318.7809 531.5825 319.9122 530.712 321.0437 529.8418 321.2181 529.6677 319.0422 532.1047 316.8666 534.5413 312.3408 539.5893 309.3817 548.6403 306.4229 557.691 305.0308 570.7454 304.3346 577.2728 303.6382 583.7995 303.6382 583.7995 296.676 581.885 289.7135 579.9702 275.7889 576.1412 263.5177 570.3973 251.2471 564.6529 240.6294 556.9948 232.3616 549.3362 224.094 541.6775 218.1762 534.0195 214.6949 525.8387 211.214 517.6579 210.1697 508.9552 209.8216 500.8618 209.4735 492.7677 209.8213 485.2831 210.6045 479.8006 211.388 474.3179 212.6064 470.8363 216.9578 463.4391" fill-rule="evenodd"/>
<path transform="matrix(1,0,0,-1,0,1380.47)" d="M394.5158 457.0676C392.4927 447.2552 388.9247 429.3709 387.358 420.1021 385.7916 410.8334 386.227 410.1812 387.2276 409.6154 388.2285 409.0496 389.7947 408.5711 390.926 410.1378 392.0576 411.7039 392.7538 415.3158 394.973 425.3675 397.1923 435.4194 400.9346 451.9117 402.6098 460.3099 404.2854 468.7081 403.8934 469.0125 402.8272 469.3822 401.7611 469.7521 400.0209 470.1875 399.02 470.3615 398.0194 470.5356 397.758 470.4483 397.3881 469.5347 397.0182 468.6208 396.5394 466.8803 394.5158 457.0676" fill-rule="evenodd"/>
<path transform="matrix(1,0,0,-1,0,1380.47)" d="M406.6126 448.7788C406.5041 443.3825 406.5041 437.6826 405.5902 432.8527 404.6766 428.0224 402.8485 424.0624 401.108 420.4942 399.3676 416.9259 397.7138 413.7497 397.1047 410.9868 396.4958 408.2233 396.9306 405.8731 398.0186 404.0022 399.1068 402.1311 400.847 400.7387 402.8703 400.0425 404.894 399.3463 407.2003 399.3463 408.8103 399.8903 410.4204 400.434 411.334 401.5219 412.5305 405.6996 413.7273 409.8767 415.207 417.1433 417.7307 425.4766 420.2546 433.8096 423.8229 443.2085 425.7811 448.8004 427.739 454.392 428.0873 456.1761 427.6086 457.5903 427.1301 459.0045 425.8244 460.0488 422.5388 461.3108 419.2534 462.5728 413.9887 464.0525 411.0945 464.5964 408.2009 465.1404 407.679 464.7484 407.3091 462.007 406.9395 459.2653 406.7215 454.1743 406.6126 448.7788ZM411.8346 452.7819C411.8128 450.2146 411.7691 445.4714 412.2479 443.0784 412.7267 440.6851 413.7273 440.6414 415.3808 441.4249 417.0345 442.2078 419.3408 443.8179 420.8202 445.8195 422.2998 447.8213 422.9524 450.2146 422.5609 452.2164 422.1694 454.218 420.7329 455.8277 418.9272 456.7856 417.1212 457.7426 414.9456 458.047 413.7055 457.8296 412.4653 457.6119 412.1609 456.8723 412.0087 456.3068 411.8564 455.741 411.8564 455.349 411.8346 452.7819ZM409.2452 434.0489C408.4622 432.3736 407.6787 429.7626 407.5262 428.131 407.3743 426.4994 407.8528 425.8468 408.8316 425.5203 409.811 425.194 411.2906 425.194 412.6178 425.912 413.945 426.6298 415.1197 428.0658 415.6637 429.9588 416.2076 431.8515 416.1209 434.2014 415.3374 435.4849 414.5542 436.7684 413.0745 436.9864 411.9432 436.7254 410.8119 436.464 410.0284 435.7242 409.2452 434.0489ZM403.0444 414.2718C402.4137 412.7488 401.7175 410.4862 401.7824 408.528 401.8479 406.5698 402.6745 404.9161 403.9583 404.4376 405.2421 403.9588 406.9823 404.655 408.2009 406.135 409.4195 407.6144 410.1157 409.8767 410.3549 411.8788 410.5945 413.8804 410.3765 415.6206 409.8543 416.5781 409.3322 417.5354 408.5056 417.7094 407.6135 417.7094 406.7215 417.7094 405.7639 417.5354 405.0026 417.0569 404.2412 416.5781 403.6757 415.7946 403.0444 414.2718" fill-rule="evenodd"/>
<path transform="matrix(1,0,0,-1,0,1380.47)" d="M179.2689 752.5108C178.9209 742.6327 179.2689 729.1434 181.5755 718.526 183.8818 707.9083 188.1456 700.1626 190.9304 696.0288 193.7154 691.8948 195.0211 691.3732 198.2412 691.0248 201.4614 690.6767 206.5958 690.5027 216.7781 690.4593 226.9604 690.4157 242.1907 690.5027 251.2854 690.6767 260.3798 690.8508 263.3386 691.1118 266.7762 693.0266 270.214 694.9412 274.1301 698.5094 276.0883 701.2074 278.0464 703.9052 278.0464 705.7327 278.873 711.6072 279.6999 717.4817 281.3536 727.4027 284.5738 736.8454 287.7936 746.2882 292.5799 755.2519 298.7589 762.6932 304.9381 770.1338 312.5098 776.0517 319.3849 779.0108 326.2603 781.9696 332.4393 781.9696 340.1413 780.1855 347.8436 778.4014 357.0684 774.8331 361.6809 773.0493 366.2935 771.2651 366.2935 771.2651 362.8556 774.877 359.418 778.4887 352.5429 785.7119 347.2775 794.9803 342.0125 804.2491 338.3572 815.5627 336.0073 824.1783 333.6576 832.7942 332.6136 838.7124 332.0915 841.6718 331.5694 844.6303 331.5694 844.6303 326.4344 838.0162 321.2997 831.4021 311.0304 818.1737 299.9339 803.5095 288.8379 788.845 276.9151 772.7448 270.4311 763.3894 263.9477 754.0336 262.9037 751.4229 261.4677 750.9008 260.0317 750.3786 258.2039 751.9448 253.8088 756.3832 249.414 760.8217 242.4518 768.1323 238.2307 771.8746 234.0099 775.6166 232.5305 775.7909 224.1323 775.965 215.7341 776.139 200.4174 776.3131 192.1932 776.139 183.9688 775.965 182.8372 775.4426 181.7495 772.0486 180.6616 768.6544 179.6173 762.3884 179.2689 752.5108" fill-rule="evenodd"/>
<path transform="matrix(1,0,0,-1,0,1380.47)" d="M185.7087 779.9029C188.015 779.4893 191.975 778.9674 200.8735 778.8368 209.7723 778.7061 223.6099 778.9674 231.116 779.468 238.6222 779.9681 239.7971 780.7076 239.9057 781.6431 240.0148 782.5788 239.0573 783.7104 235.1625 784.4499 231.2683 785.1898 224.4368 785.5379 216.2775 785.7119 208.1188 785.886 198.6324 785.886 192.8013 785.9948 186.9707 786.1034 184.7951 786.3214 183.5116 786.2343 182.2277 786.1473 181.836 785.7553 181.7487 784.8198 181.6617 783.8844 181.8797 782.4044 182.3148 781.5127 182.7499 780.6206 183.4024 780.3162 185.7087 779.9029" fill-rule="evenodd"/>
<path transform="matrix(1,0,0,-1,0,1380.47)" d="M410.5542 852.2014C406.2898 859.5986 400.0238 872.2176 395.5416 883.5316 391.0598 894.8452 388.3618 904.8535 386.8387 918.3433 385.3159 931.8325 384.9678 948.8027 385.0112 960.0729 385.0546 971.3429 385.49 976.9133 385.9685 980.2638 386.4472 983.6141 386.9694 984.746 393.9752 986.8782 400.9808 989.0099 414.4706 992.1433 425.2184 993.405 435.9665 994.667 443.9727 994.0575 449.8038 993.1003 455.635 992.1433 459.29 990.8374 463.9025 990.0544 468.5151 989.2712 474.0849 989.0099 478.3927 989.75 482.7008 990.4898 485.7466 992.23 490.6202 993.3616 495.4941 994.4929 502.1952 995.0151 511.9421 995.1891 521.6896 995.3631 534.4829 995.1891 542.4891 993.579 550.4958 991.9692 553.716 988.9231 555.1084 985.3982 556.501 981.8736 556.0656 977.8703 555.6308 961.5526 555.1957 945.2344 554.7603 916.6022 550.931 894.5405 547.1019 872.4784 539.8787 856.9877 532.6115 846.1091 525.3446 835.2303 518.0343 828.9643 514.3357 824.9613 510.6368 820.9576 510.55 819.2174 511.507 810.6885 512.4643 802.1594 514.4664 786.8426 517.6426 777.0518 520.8191 767.2612 525.1708 762.997 530.5226 758.6892 535.875 754.3811 542.2283 750.0297 550.4958 747.1142 558.7637 744.1988 568.946 742.7191 577.0395 743.5894 585.1335 744.4599 591.1381 747.6797 595.9466 752.1619 600.755 756.6437 604.3666 762.3879 606.2374 768.6105 608.1089 774.8328 608.2396 781.5342 606.7817 787.4955 605.3241 793.457 602.278 798.6784 598.2746 801.9859 594.2713 805.2928 589.3106 806.6849 584.176 806.3368 579.041 805.9887 573.7326 803.9001 570.7735 800.4192 567.8147 796.938 567.2052 792.0643 567.9014 788.322 568.5979 784.5797 570.5997 781.9693 571.0348 780.3159 571.47 778.6619 570.3384 777.9657 567.9448 779.184 565.5518 780.4026 561.8968 783.5355 560.0254 787.9306 558.1545 792.3257 558.0672 797.9822 559.5466 803.1172 561.0266 808.2519 564.0724 812.8641 567.858 815.91 571.6437 818.9561 576.1695 820.4357 581.3478 820.9145 586.5259 821.393 592.3568 820.8709 597.9699 819.0867 603.5834 817.3026 608.9791 814.2565 613.8091 810.3841 618.6393 806.5111 622.9037 801.8113 625.9499 795.0668 628.9957 788.322 630.8232 779.5324 631.2583 771.7652 631.6937 763.9977 630.7359 757.2532 627.1679 750.204 623.5999 743.1545 617.4207 735.8003 610.9373 729.4691 604.4539 723.1374 597.6655 717.8289 588.8974 713.63 580.1292 709.4307 569.3814 706.3413 558.2852 705.3843 547.1889 704.427 535.7452 705.6017 523.9528 708.626 512.1604 711.6503 500.0202 716.5242 488.2275 724.9224 476.4351 733.3203 464.9907 745.2434 456.179 756.8181 447.3672 768.3928 441.1882 779.6191 437.3152 790.4109 433.4426 801.2024 431.8761 811.5588 430.8316 818.3469 429.7873 825.1353 429.2651 828.3552 427.4376 831.4447 425.6101 834.5341 422.4767 837.4932 419.779 840.0606 417.081 842.6276 414.8186 844.8038 410.5542 852.2014ZM446.0513 865.1259H480.2536V852.3323H446.0513ZM446.3127 846.8498H480.3846V833.7957H446.3127ZM446.5712 828.182H480.5124V818.13H446.5712ZM422.2071 779.582C420.5971 778.4725 419.9876 776.6884 420.1835 774.8824 420.3797 773.0768 421.3803 771.2493 423.0556 770.0746 424.7311 768.8996 427.0808 768.3772 428.8864 768.6604 430.6924 768.943 431.9541 770.0306 432.6287 771.554 433.3034 773.0768 433.3901 775.0349 432.6939 776.7757 431.998 778.5159 430.5183 780.0392 428.4729 780.5829 426.4279 781.1269 423.8172 780.6915 422.2071 779.582ZM449.443 812.9083H482.7319V801.5508H449.443ZM454.0796 790.7114C454.1102 790.6765 454.0782 790.6371 454.4915 788.4397 454.9051 786.2423 455.7637 781.8868 456.1931 779.709L456.6226 777.5314 461.67 778.663C466.7179 779.7943 476.8132 782.0569 481.8609 783.1885L486.9088 784.3198 486.6474 786.1039C486.3864 787.8878 485.8642 791.4557 485.6029 793.2399L485.3421 795.024 480.096 794.321C474.8499 793.6174 464.3572 792.2115 459.1573 791.4937 453.9574 790.7757 454.0499 790.7457 454.0796 790.7114ZM469.544 771.842C473.7869 774.1701 480.5751 777.6944 483.9693 779.457L487.3635 781.2193 488.3856 779.6092C489.4084 777.9991 491.4539 774.7792 492.476 773.1692L493.4988 771.5591 489.5609 769.0136C485.6227 766.4678 477.7466 761.3768 473.8088 758.8312L469.8706 756.2854 468.5431 758.1132C467.2162 759.9407 464.5619 763.5957 463.2344 765.4238 461.9072 767.2513 461.9072 767.2513 462.7559 767.8168 463.6046 768.3826 465.3014 769.5142 469.544 771.842ZM476.1354 748.0171C477.8762 746.2979 480.7919 743.3286 482.2495 741.8438L483.7071 740.3587 487.2098 743.6225C490.7129 746.886 497.719 753.4131 501.2218 756.6769L504.7248 759.9404 503.0929 761.5939C501.4613 763.2473 498.1975 766.5545 496.5656 768.208L494.934 769.8614 491.3223 766.6631C487.7107 763.4648 480.4872 757.0684 476.8756 753.87 473.2639 750.6717 473.2639 750.6717 473.5466 750.4376 473.8294 750.2037 474.3952 749.736 476.1354 748.0171ZM498.5875 741.9144C501.1985 744.9386 504.9845 749.1591 506.8772 751.2698 508.7701 753.3802 508.7701 753.3802 510.3147 751.9442 511.8596 750.5084 514.9494 747.6361 516.494 746.2001 518.0389 744.764 518.0389 744.764 515.5801 742.0011 513.1216 739.2379 508.2046 733.7117 505.7459 730.9488 503.2874 728.1853 503.2874 728.1853 501.59 729.3606 499.8932 730.5352 496.499 732.8849 494.8019 734.0598 493.1048 735.2345 493.1048 735.2345 493.8228 736.1484 494.5408 737.062 495.9768 738.8901 498.5875 741.9144ZM519.1481 733.1244C521.3452 736.105 523.8043 739.4556 525.0334 741.1311 526.263 742.8064 526.263 742.8064 528.1339 741.5878 530.0053 740.3695 533.7476 737.9328 535.6185 736.7145 537.4896 735.4959 537.4896 735.4959 535.4881 732.4064 533.4866 729.3172 529.4832 723.138 527.4814 720.0485 525.4798 716.959 525.4798 716.959 523.4128 718.2865 521.346 719.6136 517.212 722.2674 515.1447 723.5949 513.078 724.9221 513.078 724.9221 514.046 726.2271 515.014 727.5325 516.9506 730.1435 519.1481 733.1244ZM539.727 729.6642C537.7037 726.1393 535.3758 721.8748 534.2117 719.7426L533.0477 717.6104 534.8642 716.9034C536.6809 716.1962 540.3146 714.7817 542.1311 714.075L543.9481 713.3675 545.83 716.9902C547.7119 720.6129 551.4763 727.8579 553.3583 731.4698 555.2405 735.0814 555.2405 735.0596 555.2186 735.0491 555.1968 735.0381 555.1532 735.0381 553.5213 735.6146 551.8896 736.1909 548.6695 737.3443 547.0157 737.9643 545.3623 738.5845 545.2756 738.6712 544.3724 737.3225 543.4693 735.9735 541.7507 733.1888 539.727 729.6642ZM555.3703 726.8576C554.6305 723.7026 553.6298 718.8287 553.1295 716.3923 552.6289 713.9554 552.6289 713.9554 554.0649 713.8468 555.501 713.7377 558.373 713.5203 564.8783 715.5658 571.3841 717.6107 581.5225 721.9185 586.5919 724.2032 591.6614 726.4874 591.6614 726.7487 586.4615 727.706 581.2617 728.663 570.8614 730.317 565.096 731.2961 559.3303 732.2751 558.1987 732.5793 557.3934 732.0138 556.5886 731.448 556.1104 730.0123 555.3703 726.8576ZM489.4121 929.9548C492.5798 934.2714 498.2196 941.1639 504.3115 946.4553 510.4035 951.7467 516.9478 955.4366 522.3436 957.63 527.7396 959.8229 531.9865 960.5188 535.0844 960.7629 538.183 961.0064 540.1324 960.7975 541.281 960.4494 542.4299 960.1013 542.7782 959.6143 541.4204 954.8802 540.0629 950.1454 536.9992 941.1639 530.7678 932.2523 524.537 923.3408 515.1376 914.4984 507.5833 909.8861 500.0292 905.2736 494.3203 904.8906 490.4382 905.6568 486.5567 906.4225 484.503 908.337 483.876 911.2788 483.2498 914.22 484.0509 918.1885 484.7992 921.043 485.5482 923.8975 486.2443 925.638 489.4121 929.9548ZM400.6094 934.338C404.752 927.7934 410.3915 921.8404 416.0656 917.193 421.74 912.5456 427.449 909.2041 433.715 907.5334 439.9809 905.862 446.8039 905.862 450.4938 906.6977 454.1839 907.5328 454.7412 909.2041 454.6366 912.5461 454.5326 915.8876 453.7664 920.9004 449.4498 927.0275 445.1332 933.1543 437.2659 940.3948 428.6324 945.199 419.9992 950.0029 410.6004 952.3701 404.2298 953.6233 397.859 954.8765 394.5175 955.0159 394.1694 951.5174 393.8213 948.0189 396.4669 940.8824 400.6094 934.338ZM487.6594 958.9017C493.3599 962.644 500.6704 967.0822 507.5453 969.9979 514.421 972.9133 520.861 974.3057 526.7356 975.2632 532.6101 976.2205 537.9185 976.7424 541.2254 976.0898 544.5326 975.437 545.8382 973.6095 545.7946 972.4782 545.7512 971.3466 544.3586 970.9115 539.0062 969.1277 533.6541 967.3435 524.342 964.2101 515.6391 960.5117 506.9364 956.8128 498.8424 952.5484 492.8372 949.0241 486.8325 945.4995 482.9165 942.7141 479.9574 941.6701 476.9986 940.6259 474.9968 941.3218 474.1262 942.8448 473.2563 944.3676 473.5174 946.7178 475.6929 949.4155 477.8691 952.1135 481.9589 955.1594 487.6594 958.9017ZM450.1389 966.5172C450.8028 964.1676 451.8468 962.2312 454.3274 960.6104 456.8077 958.9893 460.724 957.6836 464.5964 957.0747 468.4694 956.4653 472.2987 956.5523 475.7363 957.4228 479.1739 958.2928 482.22 959.9465 484.5475 961.666 486.8756 963.3849 488.4849 965.1694 488.8329 967.6936 489.181 970.2173 488.268 973.48 487.2458 975.416 486.2234 977.3521 485.0918 977.9615 484.3956 977.396 483.6997 976.83 483.4383 975.0898 482.0023 973.0446 480.5666 970.9994 477.9558 968.6492 475.8236 967.6052 473.6914 966.5606 472.0377 966.8217 471.2105 967.8226 470.3842 968.8235 470.3842 970.564 470.9064 971.6516 471.4285 972.7396 472.4728 973.175 473.2994 973.9579 474.1262 974.7411 474.7357 975.8727 474.2135 977.0479 473.6914 978.2226 472.0377 979.4409 470.2535 979.9197 468.4694 980.3982 466.5549 980.1371 465.2493 979.5716 463.9439 979.0055 463.2477 978.1356 463.117 977.0043 462.9869 975.8727 463.4218 974.4803 464.118 973.6098 464.8144 972.7396 465.772 972.3917 466.2938 972.0437 466.816 971.6956 466.9033 971.3475 466.9466 970.4336 466.99 969.52 466.99 968.04 466.99 967.3004 466.99 966.5606 466.99 966.5606 465.6407 966.8653 464.292 967.1698 461.5943 967.7792 459.8101 968.8671 458.026 969.9548 457.1558 971.5209 456.8511 973.5664 456.5466 975.6113 456.8077 978.1356 456.9384 980.0504 457.069 981.9646 457.069 983.2706 456.1985 983.0965 455.3283 982.9222 453.5875 981.2684 452.2277 979.5716 450.868 977.8742 449.8886 976.134 449.5405 973.8822 449.193 971.6304 449.4756 968.8671 450.1389 966.5172ZM405.8527 965.9072C411.1177 965.1674 418.1672 963.5136 424.2155 960.6416 430.2641 957.7698 435.312 953.6794 439.141 950.3291 442.9706 946.9783 445.5814 944.3673 447.931 943.062 450.2812 941.7566 452.3695 941.7566 453.9796 942.7578 455.5896 943.7581 456.7212 945.76 456.5032 947.8922 456.2858 950.0244 454.7197 952.2867 450.542 955.7683 446.3649 959.2492 439.5764 963.949 433.6586 967.2996 427.7407 970.6499 422.6927 972.652 417.8191 973.9137 412.9458 975.1757 408.246 975.6975 404.4169 975.7848 400.5876 975.8716 397.6285 975.5235 395.9751 973.87 394.3216 972.2166 393.9735 969.2575 395.5397 967.8654 397.1064 966.4727 400.5876 966.6468 405.8527 965.9072" fill-rule="evenodd"/>
<path transform="matrix(1,0,0,-1,0,1380.47)" d="M413.4529 935.081C416.2975 931.8767 422.1286 926.5683 427.3937 923.2614 432.6588 919.9539 437.3586 918.6483 440.7089 918.0828 444.0597 917.517 446.0615 917.691 445.9742 919.3884 445.8875 921.0852 443.7116 924.3054 438.9148 928.2138 434.1189 932.1222 426.7015 936.7189 421.5943 938.8789 416.4871 941.0386 413.6893 940.7619 412.2198 940.0737 410.7504 939.3851 410.6086 938.2853 413.4529 935.081" fill-rule="evenodd"/>
<path transform="matrix(1,0,0,-1,0,1380.47)" d="M503.8036 930.3987C507.2848 934.6195 513.1157 941.8431 517.3367 946.4992 521.5575 951.1551 524.1682 953.2434 526.4311 953.8965 528.694 954.5494 530.6083 953.7659 531.6962 952.6346 532.7841 951.5032 533.0452 950.0236 531.8269 947.4996 530.6083 944.9759 527.9105 941.4082 524.0375 937.0568 520.1651 932.705 515.1172 927.5703 511.4616 924.3938 507.8066 921.217 505.5443 919.999 503.6729 919.4335 501.802 918.8674 500.322 918.9547 499.4518 919.7816 498.5819 920.6082 498.3205 922.1746 498.7556 923.5672 499.191 924.9596 500.3226 926.1777 503.8036 930.3987" fill-rule="evenodd"/>
<path transform="matrix(1,0,0,-1,0,1380.47)" d="M176.9749 798.6983C177.4973 796.2092 178.6459 793.1806 181.1696 791.5445 183.6938 789.9083 187.5923 789.6645 195.8253 789.4383 204.0582 789.2121 216.6253 789.0035 224.2661 789.2121 231.9075 789.421 234.6231 790.0478 235.963 792.1193 237.3035 794.1903 237.2686 797.7059 236.886 800.1777 236.503 802.6492 235.7717 804.0767 231.8031 804.651 227.8346 805.2253 220.6284 804.947 214.7975 804.477 208.9667 804.0067 204.5109 803.3457 200.003 803.0846 195.4947 802.8235 190.9344 802.9627 187.958 803.6589 184.9816 804.3554 183.5892 805.6086 182.5101 806.5137 181.4309 807.4185 180.6647 807.9755 179.7423 807.6798 178.8199 807.3839 177.7408 806.235 177.1486 804.6862 176.557 803.1368 176.4527 801.1874 176.9749 798.6983ZM185.3994 796.8008C185.7127 795.7219 186.1999 794.7125 187.0702 794.3122 187.9404 793.9117 189.1936 794.1209 189.8725 793.9468 190.5514 793.7728 190.6557 793.2152 191.4914 792.815 192.327 792.415 193.8934 792.1709 195.1121 792.1188 196.3304 792.0666 197.2003 792.2058 197.7401 792.6236 198.2795 793.0412 198.4887 793.7376 198.9933 793.6506 199.4981 793.5636 200.2989 792.6936 201.691 792.2412 203.0837 791.7885 205.0679 791.7534 206.9649 791.7885 208.8621 791.8231 210.6726 791.9274 211.2296 792.4669 211.7866 793.0066 211.0904 793.9814 210.9509 795.0779 210.8117 796.1746 211.2296 797.3929 211.1771 798.2113 211.125 799.0291 210.6028 799.4469 209.541 799.6558 208.4794 799.8647 206.8784 799.8647 205.1898 799.8471 203.5015 799.8299 201.7261 799.7947 200.8383 799.412 199.9508 799.0291 199.9508 798.298 199.9335 797.741 199.9159 797.1843 199.8808 796.8008 199.5154 796.6443 199.15 796.4875 198.4535 796.5573 198.0357 797.1143 197.6179 797.6713 197.479 798.7156 196.6609 799.3423 195.8431 799.9688 194.3459 800.1777 192.5184 800.2301 190.6909 800.2823 188.5326 800.1777 187.1921 800.1428 185.8521 800.1082 185.33 800.1428 185.1384 799.5861 184.947 799.0291 185.0859 797.8799 185.3994 796.8008ZM213.3703 797.271C213.0741 796.1746 212.8306 794.573 213.283 793.5985 213.7357 792.6236 214.8843 792.2755 216.1375 792.1539 217.391 792.032 218.7485 792.1361 219.6536 792.6409 220.5587 793.1458 221.0114 794.0509 221.2027 795.2519 221.3943 796.4527 221.3243 797.9499 220.9589 798.8029 220.5933 799.6555 219.9322 799.8647 218.7833 799.882 217.6347 799.8993 215.998 799.7253 215.0059 799.3423 214.014 798.9596 213.6662 798.3675 213.3703 797.271ZM224.0396 797.8626C223.9353 796.6616 223.9007 795.13 224.6142 794.3295 225.328 793.5287 226.7901 793.459 228.1127 793.5809 229.4357 793.7028 230.6191 794.0163 231.298 794.9565 231.9769 795.8962 232.151 797.4624 232.0464 798.6115 231.942 799.7601 231.5594 800.4912 230.7237 800.8739 229.8883 801.2568 228.6 801.292 227.4863 801.2225 226.3723 801.1525 225.4323 800.9785 224.8753 800.4563 224.3183 799.9342 224.1442 799.0637 224.0396 797.8626" fill-rule="evenodd"/>
<path transform="matrix(1,0,0,-1,0,1380.47)" d="M325.4244 561.7037C328.7665 553.5924 333.1525 544.1236 342.0295 536.1174 350.9065 528.1106 364.2738 521.566 378.6854 517.3886 393.0976 513.2115 408.5541 511.401 422.2695 511.9231 435.9855 512.4453 447.9605 515.2997 458.8914 519.1639 469.8221 523.0278 479.7088 527.9017 490.1519 536.7441 500.5956 545.586 511.596 558.3963 519.8808 569.1535 528.1662 579.9101 533.736 588.6128 538.8531 600.6926 543.9705 612.7719 548.6352 628.2283 551.3156 641.8049 553.9963 655.3809 554.6925 667.0777 555.0058 674.8758 555.3193 682.6734 555.2495 686.5719 555.2147 688.5213 555.1801 690.4706 555.1801 690.4706 552.7777 690.4706 550.3759 690.4706 545.5718 690.4706 543.1697 690.4706 540.7679 690.4706 540.7679 690.4706 540.733 687.2681 540.6985 684.0655 540.6284 677.6603 539.2012 671.116 537.774 664.5713 534.9892 657.8872 530.8815 651.1343 526.7738 644.3807 521.3429 637.5574 515.982 632.6838 510.6209 627.8102 505.33 624.886 502.6842 623.4239 500.0383 621.9618 500.0383 621.9618 501.605 620.6391 503.1717 619.3162 506.3043 616.6709 508.0105 614.2343 509.7163 611.7973 509.9947 609.5693 509.9598 606.297 509.925 603.0249 509.5769 598.7078 509.0896 595.8187 508.602 592.9294 507.9756 591.4672 506.0608 587.6731 504.1463 583.8786 500.944 577.7515 497.1144 571.5207 493.2853 565.2893 488.8293 558.9533 486.1137 555.6118 483.3986 552.2698 482.4241 551.9217 480.0217 551.8868 477.6199 551.8522 473.7903 552.1303 470.7967 553.9056 467.803 555.6813 465.6447 558.9533 461.9894 562.4694 458.3344 565.9852 453.1825 569.7448 448.9702 572.5298 444.7582 575.3146 441.4856 577.1251 439.1186 579.7709 436.7514 582.4162 435.289 585.8974 434.6623 589.7616 434.0358 593.6255 434.245 597.8724 434.8369 601.9106 435.4285 605.9489 436.4033 609.7779 436.6123 612.1803 436.8209 614.5821 436.2642 615.5569 430.7984 619.734 425.3332 623.9115 414.9595 631.2917 407.6144 638.8809 400.2693 646.4696 395.9521 654.2671 393.8981 663.5968 391.8444 672.9262 392.0536 683.7871 392.506 694.8918 392.9587 705.9969 393.6549 717.3454 394.7689 724.5167 395.8826 731.6878 397.4145 734.6812 398.2844 736.7006 399.155 738.7194 399.3642 739.764 397.4839 741.4699 395.6046 743.1755 391.6355 745.543 388.8159 746.9008 385.9963 748.258 384.3252 748.6058 382.5845 747.8748 380.8443 747.1437 379.0341 745.3338 378.86 740.5648 378.686 735.7955 380.1481 728.0671 381.3313 721.3833 382.515 714.6998 383.4201 709.06 383.3155 700.9492 383.2112 692.8381 382.0975 682.2553 378.0244 672.5083 373.9518 662.7609 366.9197 653.8496 358.3559 646.7131 349.7927 639.5766 339.6971 634.2157 333.1176 628.5419 326.5387 622.8675 323.475 616.8796 321.4559 609.2909 319.4371 601.7017 318.462 592.5118 319.1236 584.5397 319.7852 576.5678 322.0824 569.8145 325.4244 561.7037" fill-rule="evenodd"/>
<path transform="matrix(1,0,0,-1,0,1380.47)" d="M190.0766 812.4851C193.8362 812.3111 200.3117 811.963 207.4479 811.963 214.5844 811.963 222.3819 812.3111 227.1161 813.1119 231.8505 813.9124 233.5218 815.1656 233.4518 816.1058 233.3823 817.0455 231.5718 817.672 226.4196 817.7766 221.2679 817.8812 212.7739 817.4633 205.3939 817.5331 198.0139 817.6025 191.7479 818.1595 188.1624 818.0552 184.5768 817.9506 183.6717 817.1847 183.4628 816.1753 183.2542 815.1656 183.7412 813.9124 184.5068 813.2859 185.273 812.6592 186.317 812.6592 190.0766 812.4851" fill-rule="evenodd"/>
<path transform="matrix(1,0,0,-1,0,1380.47)" d="M576.8606 982.4026C582.4655 981.845 590.3328 981.0099 598.9314 977.9119 607.5298 974.8134 616.8591 969.4528 624.5178 964.8227 632.1764 960.1929 638.1638 956.2938 643.1417 954.832 648.1199 953.3696 652.0884 954.3444 654.1767 956.4333 656.2655 958.5215 656.4747 961.7244 654.1773 965.3451 651.8795 968.9652 647.0753 973.0032 639.7997 977.2849 632.5245 981.5669 622.777 986.0927 612.6814 988.5297 602.5864 990.966 592.143 991.3141 583.7536 990.7226 575.3639 990.1304 569.0279 988.5991 566.1734 987.2413 563.3192 985.8835 563.9457 984.7001 565.9299 983.969 567.9145 983.2377 571.2562 982.9593 576.8606 982.4026" fill-rule="evenodd"/>
<path transform="matrix(1,0,0,-1,0,1380.47)" d="M385.85 487.802C394.4832 485.6437 407.5722 482.9981 421.3573 481.8844 435.1428 480.7701 449.6241 481.1882 462.1564 482.5108 474.6883 483.8335 485.2715 486.0615 494.8792 488.2898 504.4873 490.5176 513.1202 492.7453 520.0826 495.5998 527.0448 498.4543 532.336 501.9358 537.5577 503.3976 542.7797 504.8597 547.9313 504.3027 551.2734 502.0053 554.6154 499.7075 556.147 495.6695 556.4256 491.4924 556.7043 487.3147 555.7294 482.9981 552.5266 477.6372 549.3243 472.2763 543.8937 465.8709 541.7354 461.2762 539.5771 456.681 540.6908 453.8957 542.0134 452.5036 543.3367 451.1112 544.8682 451.1112 546.2606 452.9211 547.6533 454.7313 548.9065 458.3517 552.0393 462.2505 555.1724 466.1493 560.1852 470.3267 563.3881 472.555 566.5907 474.7827 567.9828 475.0611 568.6092 478.7512 569.236 482.4414 569.0971 489.5425 570.3503 500.1256 571.6035 510.7082 574.2493 524.7717 579.4013 540.5763 584.5535 556.3806 592.2119 573.9256 598.0603 584.8563 603.9088 595.787 607.9465 600.1038 609.4086 603.6548 610.871 607.2052 609.7567 609.9902 608.7124 615.8387 607.6684 621.6868 606.6933 630.5987 607.5289 639.0927 608.3646 647.5864 611.0099 655.6626 613.8643 661.163 616.7191 666.663 619.7822 669.5872 624.3077 672.7901 628.8335 675.9927 634.8209 679.4736 640.2512 681.2144 645.6821 682.9551 650.556 682.9551 656.6828 682.5376 662.8093 682.1195 670.1893 681.2838 674.2273 680.2396 678.2655 679.195 678.9617 677.9418 677.4999 681.5625 676.0378 685.1829 672.4171 693.6766 668.3788 698.7594 664.3409 703.8417 659.8854 705.5127 655.4991 705.3735 651.113 705.234 646.7961 703.2847 639.4161 698.7594 632.0361 694.2336 621.5924 687.1323 616.0226 683.1638 610.4529 679.195 609.7567 678.3599 608.0159 678.0815 606.2757 677.8029 603.4907 678.0813 601.6805 681.2144 599.8703 684.3472 599.0352 690.3349 597.5728 693.7464 596.1107 697.1579 594.0224 697.9932 590.9584 697.2273 587.8953 696.4617 583.8574 694.0947 580.1672 692.2151 576.4771 690.3349 573.1353 688.9425 571.6729 684.4864 570.2111 680.0306 570.6289 672.5115 569.7933 662.2075 568.9579 651.903 566.8693 638.814 562.9005 624.1935 558.932 609.5727 553.0842 593.42 545.1469 577.2677 537.2099 561.1153 527.1843 544.9623 516.3925 532.7785 505.601 520.5946 494.0439 512.3789 480.8154 505.8346 467.5873 499.29 452.6875 494.4161 439.5288 492.3275 426.3701 490.2389 414.9522 490.9351 403.3945 492.3972 391.8373 493.8591 380.1404 496.0874 374.362 496.366 368.5833 496.6441 368.7228 494.9731 370.8808 493.302 373.0391 491.6313 377.2168 489.9603 385.85 487.802" fill-rule="evenodd"/>
<path transform="matrix(1,0,0,-1,0,1380.47)" d="M426.7854 439.2045C424.0009 431.2672 419.6149 418.9442 417.282 411.5642 414.9496 404.1839 414.6712 401.7472 415.2977 400.2506 415.9247 398.7533 417.456 398.1966 418.6046 398.8928 419.7538 399.5889 420.5197 401.5386 422.852 408.7449 425.1847 415.9505 429.0831 428.4128 431.6936 436.0714 434.3049 443.73 435.6278 446.5845 436.7418 448.7428 437.8555 450.9011 438.7609 452.3632 438.5171 453.5816 438.2736 454.8002 436.881 455.7745 435.5926 455.8445 434.3049 455.9139 433.1214 455.0788 431.9376 452.8857 430.7542 450.6922 429.5704 447.1415 426.7854 439.2045" fill-rule="evenodd"/>
<path transform="matrix(1,0,0,-1,0,1380.47)" d="M432.5981 399.2066C436.5317 397.4312 443.4242 394.2978 448.7851 392.8011 454.146 391.3044 457.9756 391.4433 460.7949 391.2693 463.6148 391.0952 465.4253 390.6082 468.3146 389.6337 471.204 388.6586 475.1722 387.1962 477.7483 387.2313 480.3245 387.2662 481.5079 388.7977 481.4731 390.1901 481.4385 391.5828 480.1853 392.836 477.47 394.1938 474.7547 395.551 470.5773 397.0131 468.7322 398.0923 466.8874 399.1714 467.3744 399.8676 471.5864 399.9376 475.7987 400.0071 483.736 399.45 487.3564 400.0422 490.9765 400.6338 490.2806 402.374 487.7391 403.6272 485.1981 404.8804 480.812 405.6466 477.2611 406.1341 473.7104 406.6211 470.9948 406.83 470.2289 407.7697 469.4632 408.7097 470.6467 410.3807 476.0076 410.8334 481.3685 411.2858 490.9071 410.5196 495.3977 410.8331 499.8883 411.1466 499.3313 412.539 495.0496 413.9317 490.7679 415.3241 482.7614 416.7164 478.8626 417.7956 474.9636 418.8747 475.1722 419.6407 481.5777 419.7801 487.9831 419.919 500.5845 419.432 507.3035 419.9542 514.0222 420.4763 514.8575 422.0079 511.9682 423.2962 509.0788 424.584 502.4648 425.628 496.1636 426.6031 489.8628 427.5777 483.8754 428.4828 480.9509 429.91 478.027 431.3373 478.1662 433.2866 481.0555 434.5398 483.9449 435.793 489.5844 436.35 495.7112 436.4546 501.8377 436.559 508.4521 436.2109 512.1417 436.4195 515.8321 436.6284 516.598 437.3943 516.8069 439.344 517.0158 441.2934 516.6675 444.4262 511.5501 445.9235 506.433 447.4202 496.5463 447.2813 484.85 447.4899 473.1534 447.6988 459.6463 448.2558 452.5795 448.5345 445.513 448.8126 444.8866 448.8126 443.8069 446.6543 442.728 444.4963 441.1964 440.1791 438.7246 433.4607 436.2531 426.742 432.8416 417.6213 430.6833 411.9474 428.525 406.273 427.6199 404.045 427.6545 402.7224 427.6894 401.3994 428.6642 400.9816 432.5981 399.2066" fill-rule="evenodd"/>
<path transform="matrix(1,0,0,-1,0,1380.47)" d="M523.3833 784.186C525.8554 779.3121 530.1723 771.2354 535.9856 765.8396 541.7991 760.4442 549.1097 757.7289 555.5497 756.3713 561.99 755.0135 567.5596 755.0135 573.0596 755.7446 578.56 756.4757 583.9909 757.9375 588.342 760.5488 592.6932 763.1592 595.9658 766.9188 597.219 771.1659 598.4722 775.4131 597.706 780.1472 596.4182 783.8374 595.1302 787.5275 593.3203 790.1728 590.5349 791.2519 587.7505 792.3311 583.9909 791.8441 581.8671 790.2774 579.7437 788.711 579.2564 786.0651 579.7089 784.1157 580.1615 782.166 581.5536 780.9129 582.6328 780.1472 583.7119 779.3816 584.4781 779.1029 584.9651 777.5714 585.4527 776.0395 585.6616 773.2548 584.7214 770.8876 583.7817 768.5203 581.6931 766.5707 578.3165 765.5264 574.9396 764.4818 570.2749 764.3429 565.4013 765.318 560.5279 766.2926 555.4451 768.3809 551.372 771.0965 547.2995 773.8118 544.2358 777.1533 542.3559 781.5399 540.4762 785.9259 539.7803 791.3565 539.9544 795.7431 540.1284 800.1292 541.1724 803.4707 543.9223 807.683 546.6728 811.8955 551.1285 816.9778 556.4197 821.1206 561.7111 825.2631 567.8385 828.4654 573.5123 830.2408 579.1867 832.0161 584.4084 832.3645 589.9082 832.1556 595.4085 831.9467 601.1875 831.1808 606.5833 829.3011 611.979 827.4209 616.9918 824.4275 621.413 820.8074 625.8342 817.1867 629.6632 812.9398 632.6918 808.484 635.7203 804.028 637.9486 799.3633 639.4105 794.8726 640.8726 790.382 641.5688 786.0651 641.8823 781.7834 642.1958 777.5014 642.1258 773.2548 642.0912 769.4952 642.0563 765.7356 642.0563 762.463 642.0906 757.764 642.1249 753.0644 642.1941 746.9385 642.0892 742.7965 641.984 738.654 641.706 736.4957 640.2087 734.0593 638.712 731.6223 635.9967 728.9065 630.8793 724.9728 625.7622 721.0392 618.243 715.8875 614.2394 712.8935 610.2363 709.8996 609.7493 709.0645 610.5498 706.1751 611.3506 703.2855 613.4389 698.3425 614.9358 696.045 616.4328 693.7472 617.3379 694.0953 618.3125 695.0704 619.2873 696.045 620.3313 697.6457 620.7143 699.1084 621.0975 700.5702 620.8189 701.8929 621.2713 703.3901 621.724 704.8868 622.9077 706.5581 626.0057 708.9599 629.104 711.3617 634.1168 714.4948 638.4679 716.6186 642.8197 718.7417 646.5095 719.8557 651.5918 719.9603 656.6746 720.0646 663.1498 719.1595 667.7444 717.8369 672.3397 716.514 675.0553 714.7735 677.3876 712.7198 679.72 710.6658 681.6691 708.2983 683.4793 704.8522 685.2895 701.4059 686.9608 696.8801 688.2834 692.3548 689.6064 687.8293 690.5809 683.3035 691.6949 678.4648 692.8092 673.626 694.0624 668.4744 695.7332 664.6799 697.4045 660.8852 699.4928 658.4485 701.9294 656.3251 704.3664 654.2016 707.1514 652.3909 709.2051 652.0428 711.2591 651.6947 712.5817 652.809 712.1988 654.3062 711.8161 655.8029 709.7275 657.6826 708.3697 659.3885 707.0119 661.0941 706.3855 662.6259 706.2809 664.5753 706.1763 666.5244 706.5944 668.8919 708.0911 671.2591 709.5878 673.626 712.1642 675.9935 715.8192 678.9875 719.4747 681.9809 724.2089 685.6013 729.9179 690.7533 735.6271 695.9055 742.3109 702.5893 746.9059 709.4126 751.5011 716.2356 754.0075 723.1975 755.8872 729.9162 757.7671 736.6346 759.0203 743.11 759.0203 748.7495 759.0203 754.3888 757.7671 759.1924 755.5042 762.7779 753.2419 766.3635 749.9693 768.731 743.5293 769.9842 737.0889 771.2374 727.4815 771.3768 719.4747 771.4114 711.468 771.4463 705.0626 771.3768 701.6856 770.9241 698.309 770.4711 697.9609 769.6361 695.4545 765.737 692.9481 761.8382 688.2834 754.8763 684.3844 749.8981 680.4859 744.9199 677.3525 741.9263 674.2545 740.7077 671.1565 739.4893 668.0925 740.0466 665.6905 741.6825 663.2887 743.3186 661.5485 746.034 660.1907 750.7332 658.8332 755.4328 657.8583 762.1169 656.6746 769.2531 655.4911 776.3896 654.0985 783.9782 650.7913 792.055 647.4844 800.1312 642.2627 808.6944 636.0316 815.5871 629.8002 822.4795 622.5596 827.7018 614.4483 831.2525 606.3372 834.8029 597.3559 836.6828 587.9568 837.7968 578.558 838.9106 568.741 839.2589 563.8323 839.433 558.9241 839.607 558.9241 839.607 562.301 842.5312 565.6776 845.4555 572.4309 851.3033 576.3991 855.1329 580.3682 858.962 581.5514 860.7725 584.7542 862.0957 587.9568 863.4183 593.1788 864.2534 599.2356 866.9339 605.2929 869.6146 612.1857 874.1404 619.8792 881.2766 627.5724 888.4125 636.0661 898.16 640.6262 905.8881 645.1869 913.6162 645.8136 919.3252 645.5696 923.6069 645.3261 927.8889 644.2123 930.7434 637.1802 936.9054 630.1483 943.0668 617.1985 952.5353 608.6696 958.3492 600.1407 964.1625 596.0333 966.3208 590.6373 966.3208 585.2415 966.3208 578.558 964.1625 574.9373 961.6212 571.3169 959.0797 570.7599 956.1557 572.1874 952.1872 573.6146 948.2185 577.0261 943.2057 579.6717 937.7405 582.3176 932.275 584.1972 926.3571 584.6148 919.8128 585.0329 913.2678 583.9883 906.0968 582.5611 900.7359 581.1338 895.375 579.3236 891.824 576.2951 889.2136 573.2666 886.6023 569.0197 884.9313 566.8262 883.3303 564.6334 881.729 564.4939 880.1972 562.2659 874.8711 560.0381 869.5451 555.7215 860.4244 553.3191 854.75 550.9174 849.0756 550.4304 846.8478 546.0092 841.8005 541.588 836.7523 533.2337 828.885 528.116 823.0368 522.9986 817.1887 521.119 813.3591 520.2488 808.59 519.3785 803.8208 519.5177 798.1118 519.9009 794.4216 520.2842 790.7309 520.9115 789.0599 523.3833 784.186" fill-rule="evenodd"/>
<path transform="matrix(1,0,0,-1,0,1380.47)" d="M666.7333 830.5897C666.7679 823.6621 666.8379 810.8518 667.2209 803.3326 667.6036 795.8129 668.3 793.5851 669.3443 791.0093 670.3886 788.4329 671.781 785.5087 672.7904 783.3855 673.8001 781.2618 674.4266 779.9389 674.67 781.4707 674.9141 783.0026 674.7752 787.3886 674.7052 796.1615 674.6357 804.9339 674.6357 818.0923 675.0533 825.0199 675.4714 831.9475 676.3065 832.6434 677.177 834.0012 678.0472 835.3587 678.9523 837.3781 678.7783 839.2581 678.6043 841.1377 677.3511 842.8779 675.6797 843.7482 674.009 844.6187 671.9204 844.6187 670.354 843.7833 668.7873 842.9477 667.743 841.2766 667.2209 839.9191 666.6985 838.5613 666.6985 837.5173 666.7333 830.5897" fill-rule="evenodd"/>
<path transform="matrix(1,0,0,-1,0,1380.47)" d="M406.7243 705.4418C406.8635 694.1628 407.6989 679.6814 411.4585 668.4724 415.2183 657.2631 421.9021 649.3258 428.5857 643.9652 435.2698 638.604 441.9539 635.819 449.2638 634.218 456.5744 632.6167 464.5117 632.1988 472.3092 633.3131 480.1071 634.4269 487.7651 637.0722 494.3795 640.2056 500.9936 643.3384 506.5637 646.9588 511.0892 651.6238 515.6144 656.2885 519.0959 661.9972 522.0198 668.4724 524.9438 674.9473 527.3113 682.1878 528.4947 685.8085 529.6785 689.4286 529.6785 689.4286 525.7794 689.4286 521.8807 689.4286 514.0831 689.4286 510.1841 689.4286 506.285 689.4286 506.285 689.4286 504.2656 684.834 502.2468 680.2387 498.2088 671.0482 493.196 664.852 488.1832 658.6554 482.1953 655.4529 475.0937 653.9907 467.9926 652.5286 459.777 652.807 452.6059 655.592 445.4348 658.3768 439.3077 663.6682 435.6176 669.0988 431.9277 674.5292 430.6745 680.0992 430.1175 690.4037 429.5608 700.7077 429.7 715.746 429.2821 723.6833 428.8643 731.6203 427.8898 732.4554 424.1996 732.8035 420.5095 733.1516 414.1046 733.0127 410.6231 728.905 407.1421 724.7974 406.5849 716.7206 406.7243 705.4418" fill-rule="evenodd"/>
<path transform="matrix(1,0,0,-1,0,1380.47)" d="M450.9666 600.9381C450.7926 597.4566 451.0712 592.7919 452.7074 589.2063 454.3435 585.6208 457.3369 583.1144 459.2517 581.5131 461.1665 579.9118 462.0016 579.2153 463.0808 577.997 464.1602 576.7784 465.4828 575.0382 466.7014 573.1586 467.9201 571.2786 469.0338 569.2592 470.8786 568.1455 472.7239 567.0315 475.2998 566.8228 476.727 567.1361 478.1543 567.4496 478.4332 568.2847 478.9202 570.0254 479.4075 571.7662 480.1039 574.4115 481.9487 576.7089 483.7941 579.0067 486.7875 580.9561 489.2939 583.6365 491.8003 586.317 493.8197 589.7285 494.8291 594.1151 495.8388 598.5011 495.8388 603.862 494.5507 607.9351 493.2626 612.0079 490.6865 614.7927 486.718 616.5334 482.7495 618.2742 477.3886 618.9701 472.2364 618.8309 467.0844 618.6917 462.1414 617.7169 458.8688 615.9419 455.5967 614.1662 453.9954 611.5901 452.8814 609.1534 451.7677 606.7165 451.1407 604.419 450.9666 600.9381ZM464.682 603.0964C464.2296 600.4505 464.1599 597.109 464.891 594.3589 465.6223 591.6087 467.1539 589.4504 469.2076 588.0231 471.2615 586.5956 473.838 585.8994 476.6924 585.83 479.5469 585.7603 482.6798 586.3175 484.8032 587.3618 486.9269 588.4058 488.0407 589.9377 488.7371 592.5487 489.4333 595.1594 489.7117 598.8492 489.1893 601.9478 488.6674 605.0458 487.3445 607.5522 485.3256 609.084 483.3065 610.6156 480.5909 611.1729 478.224 611.3818 475.8568 611.5904 473.8374 611.4512 471.9926 611.1031 470.1478 610.7547 468.4765 610.198 467.2233 608.9448 465.9701 607.6916 465.1347 605.742 464.682 603.0964" fill-rule="evenodd"/>
<path transform="matrix(1,0,0,-1,0,1380.47)" d="M445.9518 718.6005C446.1959 711.4989 446.474 698.0615 447.1004 690.3334 447.7272 682.6054 448.7023 680.5865 450.373 678.4282 452.0438 676.2699 454.4113 673.9722 457.3006 672.5449 460.19 671.1177 463.6015 670.5607 467.187 670.5261 470.7726 670.4912 474.5322 670.9785 478.0131 672.6844 481.4943 674.3897 484.6972 677.3142 486.4725 681.0392 488.2479 684.7637 488.5957 689.2894 488.7697 691.5523 488.9438 693.8147 488.9438 693.8147 486.6809 695.3465 484.4186 696.8781 479.893 699.9415 474.8105 703.8405 469.728 707.7393 464.0888 712.4734 459.563 716.7906 455.0377 721.1072 451.6262 725.0057 449.4328 726.6767 447.2399 728.3477 446.2654 727.7907 445.8821 727.1297 445.4991 726.4681 445.7083 725.7019 445.9518 718.6005" fill-rule="evenodd"/>
<path transform="matrix(1,0,0,-1,0,1380.47)" d="M564.1999 925.3477C564.1999 922.0405 564.2697 917.7934 564.3391 913.6162 564.4086 909.4385 564.4786 905.3308 564.4786 901.9539 564.4786 898.5773 564.4086 895.932 564.7915 894.6439 565.1748 893.3556 566.0101 893.4253 567.1239 893.9129 568.2382 894.3999 569.6303 895.305 570.8489 898.09 572.0672 900.8748 573.1118 905.54 573.251 911.0401 573.3904 916.5402 572.6242 922.8762 571.7191 926.6357 570.814 930.3953 569.7697 931.5785 568.7252 932.275 567.6809 932.9712 566.6369 933.1801 565.9058 933.2847 565.1748 933.3887 564.7569 933.3887 564.5132 932.2055 564.2697 931.0218 564.1999 928.6546 564.1999 925.3477" fill-rule="evenodd"/>
<path transform="matrix(1,0,0,-1,0,1380.47)" d="M670.5462 854.7877C674.898 854.6482 680.1891 854.4393 683.9833 853.6737 687.778 852.908 690.0752 851.5848 692.2684 847.8604 694.4618 844.1354 696.5501 838.0083 699.4395 833.9006 702.3291 829.7929 706.019 827.7043 711.5888 826.7992 717.1588 825.8939 724.6083 826.1725 730.4216 827.4606 736.2351 828.7483 740.4129 831.0461 741.7704 836.4421 743.1282 841.8379 741.666 850.3316 739.7167 858.4778 737.767 866.6235 735.3306 874.4213 731.3618 881.5229 727.3933 888.6243 721.893 895.0294 715.9054 899.1026 709.9177 903.1757 703.4431 904.9158 697.2466 904.6375 691.0503 904.3588 685.1324 902.0616 679.6667 897.3275 674.2015 892.5931 669.1884 885.4214 665.2894 878.3898 661.3909 871.3579 658.6058 864.4652 657.8053 860.6013 657.0048 856.7371 658.1883 855.9017 660.4858 855.449 662.7835 854.9963 666.195 854.9269 670.5462 854.7877" fill-rule="evenodd"/>
<path transform="matrix(1,0,0,-1,0,1380.47)" d="M687.7397 944.428C689.0975 940.4246 691.2558 934.7153 692.892 929.8766 694.5282 925.0379 695.6419 921.0691 697.7305 919.3289 699.8193 917.5881 702.883 918.0757 704.4843 919.8162 706.0856 921.5569 706.2245 924.5503 705.7372 927.6137 705.2499 930.6771 704.1362 933.8102 701.0728 938.1268 698.0094 942.4434 692.9963 947.9438 690.0369 950.6242 687.0784 953.3047 686.1733 953.1655 685.9993 951.9469 685.8249 950.7285 686.3825 948.4313 687.7397 944.428" fill-rule="evenodd"/>
<path transform="matrix(1,0,0,-1,0,1380.47)" d="M715.8674 936.1777C718.8265 941.4689 723.1431 946.8298 725.9975 949.6151 728.852 952.3996 730.2447 952.6085 730.6971 951.2858 731.1498 949.9626 730.6622 947.1081 728.7823 941.1902 726.9026 935.2723 723.63 926.2911 720.9845 921.6964 718.3389 917.1011 716.3201 916.8919 714.5447 917.4141 712.7694 917.9362 711.2378 919.1894 711.2724 922.4269 711.3073 925.6643 712.9086 930.8863 715.8674 936.1777" fill-rule="evenodd"/>
<path transform="matrix(1,0,0,-1,0,1380.47)" d="M732.0895 922.3583C734.7005 924.9687 737.1374 926.7789 738.5644 928.8332 739.9916 930.8866 740.4097 933.1843 742.8115 934.5421 745.2139 935.8997 749.5997 936.3175 751.9669 936.074 754.3344 935.8302 754.6825 934.9245 753.6033 933.0797 752.5242 931.235 750.0178 928.4496 747.1633 924.3074 744.3088 920.1648 741.1059 914.6645 738.0074 911.7057 734.9094 908.7466 731.916 908.3285 729.5837 908.9555 727.2513 909.5817 725.58 911.253 726.137 913.7942 726.6943 916.3352 729.4791 919.7473 732.0895 922.3583" fill-rule="evenodd"/>
<path transform="matrix(1,0,0,-1,0,1380.47)" d="M740.6161 902.8355C745.2808 907.0126 753.2872 914.6707 757.7779 918.3609 762.2685 922.0507 763.2434 921.7723 763.2434 920.3105 763.2434 918.8481 762.2685 916.2026 760.0754 911.9208 757.8825 907.6391 754.471 901.7212 753.1478 897.8919 751.8251 894.0626 752.5913 892.3224 753.1483 891.0343 753.7051 889.746 754.0534 888.9109 753.2178 888.1449 752.3824 887.3787 750.363 886.6826 748.309 886.7871 746.2553 886.8915 744.1671 887.7966 741.7647 889.1195 739.3629 890.4421 736.6473 892.1826 735.1852 893.6099 733.7234 895.0371 733.5145 896.1514 734.0715 897.0565 734.6285 897.9616 735.9514 898.6578 740.6161 902.8355" fill-rule="evenodd"/>
<path transform="matrix(1,0,0,-1,0,1380.47)" d="M715.6891 804.5972C721.5375 807.5214 733.5819 810.5151 740.2657 811.9774 746.9498 813.4396 748.2728 813.3698 749.1779 812.2907 750.083 811.2115 750.57 809.123 750.5002 805.9204 750.4308 802.7175 749.8043 798.4006 748.5511 796.1031 747.2979 793.8054 745.4177 793.527 739.4652 793.0049 733.5125 792.4827 723.4869 791.7171 717.9866 792.1698 712.4862 792.6222 711.5117 794.2932 710.85 796.5561 710.1887 798.8187 709.8406 801.6729 715.6891 804.5972ZM716.3847 799.6192C715.7585 798.5401 715.9677 797.3566 717.1509 796.6256 718.3346 795.8942 720.4929 795.6159 722.0591 795.9988 723.6258 796.3818 724.6006 797.4261 724.9139 798.7141 725.2271 800.0019 724.8793 801.5338 723.9393 802.2302 722.9993 802.9261 721.4678 802.787 719.9708 802.2302 718.4741 801.6732 717.0117 800.6984 716.3847 799.6192ZM728.43 800.5589C729.0567 799.8627 730.2399 799.1668 731.8414 799.0974 733.4427 799.0274 735.4621 799.5844 736.6802 800.803 737.8985 802.0213 738.3166 803.901 737.5853 805.0153 736.8542 806.129 734.9746 806.4768 733.4427 806.5814 731.9112 806.6857 730.7274 806.5468 729.8223 805.8504 728.9172 805.1542 728.2908 803.901 728.0121 802.9264 727.7335 801.9516 727.8035 801.2551 728.43 800.5589ZM747.2628 805.5544C747.5066 804.2839 747.6109 802.1608 746.7752 800.89 745.9401 799.6195 744.1645 799.2014 742.7894 799.2541 741.4146 799.306 740.4398 799.8279 740.0395 801.1335 739.6393 802.4389 739.8133 804.5274 740.3876 805.8331 740.9619 807.1384 741.9368 807.6606 742.9808 807.8346 744.0253 808.0087 745.1396 807.8346 745.888 807.539 746.6363 807.243 747.0193 806.8249 747.2628 805.5544" fill-rule="evenodd"/>
<path transform="matrix(1,0,0,-1,0,1380.47)" d="M717.1486 776.418C723.8327 776.2612 735.7731 776.1915 742.1085 776.766 748.4445 777.3403 749.1756 778.559 749.0361 780.4043 748.8967 782.2491 747.8875 784.7203 744.4757 785.7822 741.0643 786.8438 735.251 786.4957 728.7409 786.3565 722.2311 786.217 715.0255 786.2871 711.3353 785.8168 707.6455 785.3468 707.4714 784.3374 707.4363 782.7883 707.4017 781.2391 707.5063 779.1506 708.2719 777.9847 709.0376 776.8182 710.4648 776.5744 717.1486 776.418" fill-rule="evenodd"/>
<path transform="matrix(1,0,0,-1,0,1380.47)" d="M619.7454 637.7465C619.8151 642.3763 620.7897 646.6932 624.8628 652.0195 628.9356 657.3455 636.107 663.6813 642.2683 667.0928 648.43 670.5043 653.5823 670.9912 658.3513 669.2859 663.1206 667.5797 667.5069 663.6813 670.0827 660.2698 672.6586 656.8583 673.4248 653.934 670.9533 652.7157 668.4814 651.4974 662.7725 651.9844 655.3225 648.6775 647.8733 645.3703 638.6828 638.2689 632.73 633.3956 626.7776 628.5217 624.0617 625.8759 622.2864 627.0248 620.511 628.1734 619.6757 633.1164 619.7454 637.7465" fill-rule="evenodd"/>
<path transform="matrix(1,0,0,-1,0,1380.47)" d="M503.9263 402.3533C509.322 408.7233 516.9807 416.2428 522.8637 420.281 528.747 424.319 532.8547 424.8757 541.4879 424.3535 550.1214 423.8314 563.2798 422.2301 573.8278 419.6194 584.3755 417.0084 592.3128 413.388 596.5594 411.2297 600.8066 409.0717 601.3636 408.3752 598.0564 400.9606 594.7495 393.5455 587.5784 379.4122 582.9483 372.3803 578.3185 365.3481 576.2299 365.4181 574.3151 365.9749 572.4003 366.5319 570.6601 367.5759 571.182 371.2314 571.7041 374.8864 574.4891 381.1527 575.8118 385.0517 577.1347 388.9502 576.9955 390.4824 575.7423 391.2826 574.4891 392.0831 572.1216 392.1531 569.2671 388.6722 566.4127 385.1906 563.0709 378.1585 560.4599 374.2948 557.8495 370.4304 555.9693 369.7347 554.6115 370.1174 553.2542 370.5004 552.4189 371.9625 553.2888 375.5826 554.1593 379.203 556.7355 384.982 558.0235 388.6373 559.3113 392.2923 559.3113 393.8238 558.2322 394.1719 557.153 394.52 554.9947 393.6849 551.6181 389.6118 548.2414 385.5387 543.6465 378.2285 540.4785 375.4437 537.3105 372.6587 535.57 374.3989 535.6395 377.0793 535.7092 379.76 537.5889 383.3804 539.4685 386.862 541.3484 390.3429 543.2284 393.6847 543.1586 395.8778 543.0892 398.071 541.0701 399.1153 539.5731 399.4634 538.0764 399.8117 537.1019 399.4634 534.8041 395.8778 532.5066 392.2923 528.8862 385.4693 525.9969 382.6848 523.1078 379.8995 520.9489 381.1527 520.2876 384.0075 519.6263 386.862 520.4616 391.3174 521.7843 394.9381 523.1072 398.5586 524.9177 401.343 524.2564 402.7357 523.5948 404.1281 520.4619 404.1281 517.3634 401.6217 514.2654 399.1153 511.202 394.1025 508.4169 390.3778 505.6322 386.6528 503.1258 384.2161 500.4799 383.6245 497.8344 383.0323 495.0496 384.2855 495.2234 387.523 495.3974 390.7604 498.5306 395.9824 503.9263 402.3533" fill-rule="evenodd"/>
<path transform="matrix(1,0,0,-1,0,1380.47)" d="M558.7537 428.601C565.2984 427.4521 576.9255 426.547 584.8971 424.7368 592.869 422.9266 597.1856 420.211 600.353 418.5057 603.521 416.7995 605.5404 416.1033 607.0025 417.3219 608.4643 418.5403 609.3694 421.6731 607.1066 424.8757 604.8442 428.0786 599.4133 431.3511 593.3214 433.4051 587.2294 435.4588 580.4762 436.2939 574.0362 436.6074 567.5961 436.9209 561.4688 436.7117 557.3959 435.9458 553.3231 435.1802 551.304 433.857 551.0254 432.4997 550.747 431.142 552.2094 429.7496 558.7537 428.601" fill-rule="evenodd"/>
<path transform="matrix(1,0,0,-1,0,1380.47)" d="M574.1399 443.8134C578.6657 442.9077 585.0711 441.3764 590.9542 439.3573 596.8375 437.3379 602.1981 434.8315 605.9923 432.6038 609.787 430.3757 612.0147 428.4264 613.7904 427.4864 615.5657 426.5467 616.8886 426.6162 619.6734 429.2271 622.4584 431.8381 626.7053 436.9898 628.8287 439.9838 630.9524 442.9777 630.9524 443.8128 624.9645 446.6673 618.9772 449.5221 607.002 454.396 598.9258 458.3296 590.8496 462.2632 586.6719 465.2566 583.8523 465.9877 581.0326 466.7187 579.5708 465.1872 577.2385 462.2287 574.9061 459.2693 571.7032 454.883 569.4058 451.8196 567.108 448.7562 565.7159 447.016 566.3424 446.0063 566.9691 444.9966 569.6147 444.7182 574.1399 443.8134ZM580.5105 455.9973C581.3116 457.2505 582.8428 458.782 585.1752 458.9561 587.5075 459.1301 590.6409 457.9466 592.3463 456.45 594.0524 454.9527 594.3305 453.1422 594.087 451.332 593.8435 449.5221 593.0773 447.7119 591.4412 446.6673 589.8053 445.623 587.2989 445.3447 585.2446 445.6582 583.1909 445.9711 581.5896 446.8765 580.7194 448.1646 579.8489 449.4526 579.71 451.1237 579.6748 452.4463 579.6403 453.7689 579.71 454.7441 580.5105 455.9973ZM599.9703 451.1585C600.98 451.2974 602.4424 451.3671 603.9737 451.0018 605.5055 450.6358 607.1071 449.8353 608.099 448.8083 609.0911 447.7813 609.474 446.5281 609.1087 444.9093 608.743 443.2907 607.6287 441.3064 606.3236 439.9838 605.0183 438.6606 603.521 437.9995 601.7108 437.9995 599.9009 437.9995 597.7772 438.6606 596.4715 439.6008 595.1662 440.5408 594.6792 441.7591 594.5919 442.995 594.5051 444.2309 594.8181 445.4841 595.427 446.7546 596.0364 448.0251 596.9421 449.3132 597.6731 450.0615 598.4039 450.8099 598.9609 451.0191 599.9703 451.1585ZM616.7322 443.5002C618.2464 443.3956 619.6391 442.7694 620.5442 441.8989 621.4493 441.0286 621.8671 439.9143 621.902 438.6438 621.9366 437.3731 621.5885 435.9458 620.6482 434.7275 619.7085 433.5089 618.177 432.4997 616.3492 432.1168 614.5217 431.7338 612.398 431.9773 611.1102 432.5868 609.8221 433.1959 609.3694 434.1708 609.3 435.3894 609.2306 436.6074 609.5435 438.0695 610.0483 439.34 610.5532 440.6105 611.2494 441.6902 612.4156 442.4386 613.5817 443.1869 615.2179 443.6048 616.7322 443.5002" fill-rule="evenodd"/>
<path transform="matrix(1,0,0,-1,0,1380.47)" d="M585.8697 473.2648C589.1769 471.2105 594.8161 467.799 602.1266 463.8305 609.4369 459.8623 618.4188 455.3365 624.4061 452.9693 630.3937 450.6024 633.3874 450.3932 635.3019 451.5769 637.2167 452.7607 638.0521 455.3365 637.147 456.9729 636.2419 458.6091 633.596 459.305 628.8962 460.802 624.1969 462.2987 617.4437 464.5964 610.5509 467.799 603.6585 471.0019 596.6263 475.1096 591.7527 477.9989 586.8791 480.888 584.1641 482.5593 582.6668 482.1418 581.1701 481.7237 580.8917 479.2173 581.2396 477.616 581.5877 476.0147 582.5628 475.3182 585.8697 473.2648" fill-rule="evenodd"/>
<path transform="matrix(1,0,0,-1,0,1380.47)" d="M591.9616 485.9708C598.1581 481.445 609.8545 474.9007 620.7854 471.1411 631.7164 467.3815 641.8811 466.4066 648.8433 467.5904 655.8058 468.7741 659.5654 472.1156 667.5021 479.6348 675.4394 487.1543 687.5535 498.8511 696.8829 511.8007 706.2129 524.7505 712.7569 538.9537 716.8649 551.4163 720.9726 563.8785 722.6439 574.6005 722.2258 585.8793 721.8082 597.1584 719.3018 608.9941 714.776 616.792 710.2505 624.5895 703.7062 628.3491 696.3259 630.2985 688.9462 632.2482 680.7308 632.3871 672.4454 630.3679 664.1606 628.3491 655.8058 624.1714 647.0331 616.4433 638.2607 608.7155 629.0702 597.4364 620.4373 583.721 611.8041 570.0053 603.7279 553.8529 597.81 538.7448 591.8922 523.6364 588.1326 509.5729 586.6004 501.2881 585.0692 493.0027 585.7651 490.496 591.9616 485.9708" fill-rule="evenodd"/>
<path transform="matrix(1,0,0,-1,0,1380.47)" d="M518.2773 1080.4598C517.7486 1079.0504 517.6783 1077.8522 518.2773 1076.7603 518.8762 1075.6679 520.1442 1074.6814 522.0819 1074.5053 524.02 1074.329 526.6273 1074.9634 528.1072 1075.985 529.5872 1077.007 529.9393 1078.416 529.6224 1079.9663 529.3054 1081.5169 528.3187 1083.2077 526.7333 1084.089 525.1476 1084.9697 522.9632 1085.04 521.3775 1084.265 519.7921 1083.49 518.8056 1081.8689 518.2773 1080.4598" fill-rule="evenodd"/>
<path transform="matrix(1,0,0,-1,0,1380.47)" d="M26.2165 277.4687 30.9305 294.0026 25.5183 321.1228H42.8468L44.5929 310.646 52.3621 321.1228H69.6909L48.7395 294.0026 44.0252 277.4687Z"/>
<path transform="matrix(1,0,0,-1,0,1380.47)" d="M77.4604 296.5674H81.214L83.6147 311.4099ZM51.9693 277.4687 72.4842 321.1228H100.332L95.8799 277.4687H77.4604L79.1623 286.9089H74.0557L70.3454 277.4687Z"/>
<path transform="matrix(1,0,0,-1,0,1380.47)" d="M103.4748 277.4687 108.1888 294.0026 102.7763 321.1228H120.1051L121.8509 310.646 129.6204 321.1228H146.9492L125.9977 294.0026 121.2834 277.4687Z"/>
<path transform="matrix(1,0,0,-1,0,1380.47)" d="M154.7184 296.5674H158.4723L160.8729 311.4099ZM129.2275 277.4687 149.7424 321.1228H177.5903L173.1382 277.4687H154.7184L156.4206 286.9089H151.314L147.6037 277.4687Z"/>
<path transform="matrix(1,0,0,-1,0,1380.47)" d="M184.7052 277.4687C178.6816 277.4687 175.6698 279.3421 175.6698 283.0893 175.6698 283.8532 175.8008 284.69 176.0627 285.5993L178.2887 293.4026H196.2283L195.3556 290.374C195.0644 289.2917 195.0208 288.5187 195.2243 288.0456 195.4284 287.5819 195.9083 287.3455 196.6649 287.3455 198.1199 287.3455 199.1676 288.455 199.8077 290.6651 200.215 292.011 200.3315 292.9569 200.1569 293.5026 199.9531 294.0483 199.2694 294.5758 198.1054 295.0849L187.2805 299.7689C184.807 300.8602 183.2502 302.0332 182.6099 303.3065 182.2898 303.925 182.1297 304.6708 182.1297 305.5439 182.1297 306.417 182.2898 307.3901 182.6099 308.4814L183.9195 313.056C185.4618 318.4311 189.885 321.1228 197.1887 321.1228H215.303C221.3266 321.1228 224.3384 319.2676 224.3384 315.557 224.3384 314.7931 224.2219 313.9563 223.9892 313.0469L222.5052 307.9721H204.6963L204.8272 308.5177C205.0892 309.4637 205.1036 310.1913 204.8709 310.7004 204.6382 311.1735 204.1435 311.4099 203.3867 311.4099 201.99 311.4099 201.0881 310.7186 200.6804 309.3364 200.448 308.4996 200.6371 307.8266 201.2482 307.3173 201.4517 307.1353 202.0337 306.8263 202.9941 306.3898L215.5649 300.6601C217.6019 299.7505 218.6203 298.2407 218.6203 296.1309 218.6203 294.8941 218.344 293.3297 217.7909 291.4381L216.438 286.6907C214.6626 280.5426 210.1232 277.4687 202.8195 277.4687Z"/>
<path transform="matrix(1,0,0,-1,0,1380.47)" d="M240.5322 296.5674H244.2858L246.6867 311.4099ZM215.041 277.4687 235.5559 321.1228H263.4041L258.952 277.4687H240.5322L242.2344 286.9089H237.1275L233.4175 277.4687Z"/>
<path transform="matrix(1,0,0,-1,0,1380.47)" d="M261.4836 277.4687 273.9671 321.1228H291.5578L293.3909 303.1155 298.5415 321.1228H314.7786L302.2951 277.4687H285.4905L283.57 297.9862 277.721 277.4687Z"/>
<path transform="matrix(1,0,0,-1,0,1380.47)" d="M330.4485 277.4687 333.1548 321.1228H351.7492L347.0352 293.4026 358.1654 321.1228H376.7162L354.4991 277.4687Z"/>
<path transform="matrix(1,0,0,-1,0,1380.47)" d="M366.8953 277.4687 379.3791 321.1228H397.1877L384.7039 277.4687Z"/>
<path transform="matrix(1,0,0,-1,0,1380.47)" d="M409.0167 287.4546H410.9808C411.9701 287.4546 412.7125 287.691 413.2069 288.1641 413.7015 288.6369 414.1236 289.4647 414.4728 290.6286L419.4488 308.0721C419.798 309.2726 419.8416 310.1003 419.5797 310.5369 419.3178 311.0097 418.7214 311.2461 417.7902 311.2461H415.8258ZM388.3708 277.4687 400.8543 321.1228H430.0118C432.5434 321.1228 434.4639 320.8683 435.7735 320.3589 438.0432 319.4858 439.1779 317.8307 439.1779 315.3934 439.1779 314.3384 438.9744 313.1198 438.5667 311.7373L431.8013 288.0003C430.6085 283.8169 428.7898 280.9429 426.3454 279.3787 424.3666 278.1054 421.4276 277.4687 417.5283 277.4687Z"/>
<path transform="matrix(1,0,0,-1,0,1380.47)" d="M440.9677 277.4687 445.6817 294.0026 440.2692 321.1228H457.598L459.3438 310.646 467.1133 321.1228H484.4418L463.4906 294.0026 458.7763 277.4687Z"/>
<path transform="matrix(1,0,0,-1,0,1380.47)" d="M492.2113 296.5674H495.9649L498.3659 311.4099ZM466.7202 277.4687 487.2351 321.1228H515.0832L510.6311 277.4687H492.2113L493.9135 286.9089H488.8066L485.0966 277.4687Z"/>
<path transform="matrix(1,0,0,-1,0,1380.47)" d="M532.368 277.4687 544.8518 321.1228H562.3112L557.248 303.4976 568.0293 321.1228H586.1435L573.4854 300.8784 574.0965 277.4687H556.1566L555.5455 297.4405 549.8274 277.4687Z"/>
<path transform="matrix(1,0,0,-1,0,1380.47)" d="M576.8025 277.4687 589.2863 321.1228H618.0506L615.17 311.2461H604.2577L602.8608 306.3898H613.817L610.9798 296.513H600.0239L597.4486 287.3455H608.4043L605.5671 277.4687Z"/>
<path transform="matrix(1,0,0,-1,0,1380.47)" d="M636.0341 311.2461 634.2446 304.971H636.2087C637.9257 304.971 639.0751 305.9986 639.6571 308.054 639.8606 308.7541 639.9626 309.3182 639.9626 309.7638 639.9626 310.7551 639.3078 311.2461 637.9985 311.2461ZM630.9275 277.4687 635.1613 292.3656C635.3651 293.0204 635.4669 293.5661 635.4669 294.0026 635.4669 294.9849 634.8121 295.4761 633.5025 295.4761H631.5386L626.3878 277.4687H608.5791L621.0626 321.1228H649.9145C652.5045 321.1228 654.4687 320.8501 655.8072 320.3045 658.048 319.3586 659.1682 317.6124 659.1682 315.066 659.1682 313.829 658.9352 312.3921 658.4698 310.7551 657.597 307.6994 656.3166 305.3891 654.6288 303.825 653.0865 302.4062 650.9622 301.4059 648.256 300.8237 651.5731 300.0234 653.2319 297.968 653.2319 294.6574 653.2319 293.057 652.8974 291.0742 652.2282 288.7098L648.9981 277.4687Z"/>
<path transform="matrix(1,0,0,-1,0,1380.47)" d="M660.0847 277.4687 669.731 311.2461H660.5649L663.402 321.1228H699.4123L696.5753 311.2461H687.4089L677.7626 277.4687Z"/>
<path transform="matrix(1,0,0,-1,0,1380.47)" d="M709.0152 296.5674H712.7688L715.1695 311.4099ZM683.5241 277.4687 704.039 321.1228H731.8871L727.435 277.4687H709.0152L710.7174 286.9089H705.6105L701.9002 277.4687Z"/>
<path transform="matrix(1,0,0,-1,0,1380.47)" d="M778.1547 321.1228 768.6391 287.8911C767.4752 283.7441 765.6712 280.9066 763.2269 279.3787 761.2481 278.1054 758.3236 277.4687 754.4534 277.4687H737.0813C734.6367 277.4687 732.8035 277.7233 731.5812 278.2327 729.5445 279.1057 728.526 280.7427 728.526 283.1437 728.526 284.4533 728.788 286.0359 729.3115 287.8911L731.6685 296.0218H748.8227L747.2075 290.4012C746.8877 289.3099 746.8438 288.5278 747.0768 288.055 747.2803 287.5819 747.7753 287.3455 748.5608 287.3455 750.0739 287.3455 751.1216 288.364 751.7035 290.4012L760.4768 321.1228Z"/>
<path transform="matrix(1,0,0,-1,0,1380.47)" d="M792.7773 296.5674H796.5309L798.9318 311.4099ZM767.2861 277.4687 787.801 321.1228H815.6492L811.1971 277.4687H792.7773L794.4795 286.9089H789.3726L785.6626 277.4687Z"/>
<path transform="matrix(1,0,0,-1,0,1380.47)" d="M818.7917 277.4687 823.5057 294.0026 818.0935 321.1228H835.422L837.1681 310.646 844.9373 321.1228H862.266L841.3146 294.0026 836.6006 277.4687Z"/>
<path transform="matrix(1,0,0,-1,0,1380.47)" d="M870.0355 296.5674H873.7892L876.1898 311.4099ZM844.5444 277.4687 865.0593 321.1228H892.9074L888.4553 277.4687H870.0355L871.7377 286.9089H866.6308L862.9206 277.4687Z"/>
<path transform="matrix(1,0,0,-1,0,1380.47)" d="M273.007 206.0317 282.6533 239.809H273.4872L276.3241 249.6858H312.3346L309.4974 239.809H300.331L290.6847 206.0317Z"/>
<path transform="matrix(1,0,0,-1,0,1380.47)" d="M321.9372 225.1304H325.6911L328.0918 239.9729ZM296.4464 206.0317 316.9613 249.6858H344.8091L340.357 206.0317H321.9372L323.6394 215.4719H318.5328L314.8226 206.0317Z"/>
<path transform="matrix(1,0,0,-1,0,1380.47)" d="M342.8887 206.0317 355.3722 249.6858H372.9628L374.796 231.6784 379.9466 249.6858H396.184L383.7002 206.0317H366.8956L364.9751 226.5491 359.1261 206.0317Z"/>
<path transform="matrix(1,0,0,-1,0,1380.47)" d="M434.5512 231.1875 427.3926 206.0317C428.1783 208.8329 430.5645 217.218 434.5512 231.1875ZM413.9487 221.5834H411.5483L414.2546 231.1875H434.5512L427.3926 206.0317H418.3574L417.659 209.1421C416.9605 208.1962 415.7529 207.4323 414.036 206.8503 412.4358 206.3047 410.224 206.0317 407.4015 206.0317H397.8862C395.4419 206.0317 393.6084 206.2862 392.3864 206.7956 390.3786 207.6324 389.3746 209.2513 389.3746 211.6522 389.3746 212.9618 389.6365 214.526 390.1601 216.345L397.0568 240.5186C398.046 244.0108 399.8066 246.4846 402.3383 247.9397 404.3463 249.1038 407.0231 249.6858 410.3697 249.6858H428.7022C431.2338 249.6858 433.1398 249.4494 434.4202 248.9766 436.6607 248.1398 437.7957 246.5391 437.8246 244.1747 437.8246 243.1196 437.6211 241.901 437.2138 240.5186L435.9915 236.1532H418.0955L418.5757 237.4081C419.0411 239.118 418.5028 239.9729 416.9605 239.9729 415.4766 239.9729 414.4436 238.936 413.8614 236.8624L408.7111 218.9098C408.5365 218.255 408.4492 217.7093 408.4492 217.2728 408.4492 216.3268 408.9875 215.854 410.0641 215.854 411.5772 215.854 412.6249 216.8725 413.2069 218.9098Z"/>
<path transform="matrix(1,0,0,-1,0,1380.47)" d="M430.5353 206.0317 443.0188 249.6858H471.7834L468.9026 239.809H457.9903L456.5937 234.9527H467.5496L464.7124 225.076H453.7568L451.1812 215.9084H462.1371L459.2999 206.0317Z"/>
<path transform="matrix(1,0,0,-1,0,1380.47)" d="M489.767 239.809 487.9774 233.534H489.9416C491.6585 233.534 492.8077 234.5615 493.3899 236.6169 493.5934 237.3171 493.6955 237.8812 493.6955 238.3268 493.6955 239.3181 493.0407 239.809 491.7314 239.809ZM484.6603 206.0317 488.8939 220.9286C489.0977 221.5834 489.1997 222.1291 489.1997 222.5656 489.1997 223.5478 488.5449 224.0391 487.2353 224.0391H485.2712L480.1207 206.0317H462.312L474.7955 249.6858H503.6474C506.2371 249.6858 508.2015 249.4131 509.54 248.8674 511.7805 247.9215 512.9011 246.1754 512.9011 243.629 512.9011 242.392 512.6681 240.9551 512.2026 239.3181 511.3295 236.2623 510.0491 233.9521 508.3617 232.3879 506.8193 230.9692 504.6948 229.9689 501.9888 229.3866 505.3059 228.5864 506.9648 226.531 506.9648 223.2204 506.9648 221.62 506.63 219.6371 505.9607 217.2728L502.7309 206.0317Z"/>
<path transform="matrix(1,0,0,-1,0,1380.47)" d="M530.8407 225.1304H534.5943L536.9953 239.9729ZM505.3496 206.0317 525.8645 249.6858H553.7126L549.2605 206.0317H530.8407L532.5429 215.4719H527.436L523.726 206.0317Z"/>
<path transform="matrix(1,0,0,-1,0,1380.47)" d="M551.7921 206.0317 564.2756 249.6858H581.8663L583.6995 231.6784 588.85 249.6858H605.0871L592.6037 206.0317H575.799L573.8786 226.5491 568.0295 206.0317Z"/>
<path transform="matrix(1,0,0,-1,0,1380.47)" d="M643.4546 231.1875 636.296 206.0317C637.0818 208.8329 639.468 217.218 643.4546 231.1875ZM622.8522 221.5834H620.4518L623.1577 231.1875H643.4546L636.296 206.0317H627.2609L626.5624 209.1421C625.864 208.1962 624.6564 207.4323 622.9395 206.8503 621.339 206.3047 619.1274 206.0317 616.305 206.0317H606.7894C604.345 206.0317 602.5119 206.2862 601.2899 206.7956 599.2821 207.6324 598.278 209.2513 598.278 211.6522 598.278 212.9618 598.54 214.526 599.0635 216.345L605.9602 240.5186C606.9495 244.0108 608.7101 246.4846 611.2414 247.9397 613.2495 249.1038 615.9266 249.6858 619.2731 249.6858H637.6056C640.1373 249.6858 642.0433 249.4494 643.3237 248.9766 645.5642 248.1398 646.6992 246.5391 646.7281 244.1747 646.7281 243.1196 646.5246 241.901 646.1169 240.5186L644.8949 236.1532H626.999L627.4791 237.4081C627.9446 239.118 627.4063 239.9729 625.864 239.9729 624.38 239.9729 623.3471 238.936 622.7649 236.8624L617.6143 218.9098C617.44 218.255 617.3527 217.7093 617.3527 217.2728 617.3527 216.3268 617.891 215.854 618.9673 215.854 620.4807 215.854 621.5284 216.8725 622.1103 218.9098Z"/>
</g>
</svg>
